<?xml version="1.0" encoding="UTF-8" standalone="no"?>
<!-- Created with Inkscape (http://www.inkscape.org/) -->

<svg
   version="1.1"
   id="svg1"
   width="666.66669"
   height="666.66669"
   viewBox="0 0 666.66669 666.66669"
   xmlns="http://www.w3.org/2000/svg"
   xmlns:svg="http://www.w3.org/2000/svg">
  <defs
     id="defs1">
    <clipPath
       clipPathUnits="userSpaceOnUse"
       id="clipPath2">
      <path
         d="M 0,500 H 500 V 0 H 0 Z"
         transform="translate(-415.64841,-246.1626)"
         id="path2" />
    </clipPath>
    <clipPath
       clipPathUnits="userSpaceOnUse"
       id="clipPath4">
      <path
         d="M 0,500 H 500 V 0 H 0 Z"
         transform="translate(-384.36331,-102.77591)"
         id="path4" />
    </clipPath>
    <clipPath
       clipPathUnits="userSpaceOnUse"
       id="clipPath6">
      <path
         d="M 0,500 H 500 V 0 H 0 Z"
         transform="translate(-70.118702,-101.53811)"
         id="path6" />
    </clipPath>
    <clipPath
       clipPathUnits="userSpaceOnUse"
       id="clipPath8">
      <path
         d="M 0,500 H 500 V 0 H 0 Z"
         transform="translate(-216.2002,-143.35601)"
         id="path8" />
    </clipPath>
    <clipPath
       clipPathUnits="userSpaceOnUse"
       id="clipPath9">
      <path
         d="M 155.803,245.484 H 256.555 V 140.237 H 155.803 Z"
         transform="translate(-216.2002,-143.35601)"
         id="path9" />
    </clipPath>
    <clipPath
       clipPathUnits="userSpaceOnUse"
       id="clipPath11">
      <path
         d="M 0,500 H 500 V 0 H 0 Z"
         transform="matrix(1.3333333,0,0,-1.3333333,0,666.66667)"
         id="path11" />
    </clipPath>
    <clipPath
       clipPathUnits="userSpaceOnUse"
       id="clipPath12">
      <path
         d="m 155.797,216.927 h 14.658 v -62.246 h -14.658 z"
         transform="translate(-170.4546,-159.5205)"
         id="path12" />
    </clipPath>
    <clipPath
       clipPathUnits="userSpaceOnUse"
       id="clipPath14">
      <path
         d="M 0,500 H 500 V 0 H 0 Z"
         transform="matrix(1.3333333,0,0,-1.3333333,0,666.66667)"
         id="path14" />
    </clipPath>
    <clipPath
       clipPathUnits="userSpaceOnUse"
       id="clipPath16">
      <path
         d="M 0,500 H 500 V 0 H 0 Z"
         transform="translate(-160.0122,-169.5723)"
         id="path16" />
    </clipPath>
    <clipPath
       clipPathUnits="userSpaceOnUse"
       id="clipPath17">
      <path
         d="m 160.012,238.493 h 96.543 v -93.399 h -96.543 z"
         transform="translate(-160.0122,-169.5723)"
         id="path17" />
    </clipPath>
    <clipPath
       clipPathUnits="userSpaceOnUse"
       id="clipPath19">
      <path
         d="M 0,500 H 500 V 0 H 0 Z"
         transform="matrix(1.3333333,0,0,-1.3333333,0,666.66667)"
         id="path19" />
    </clipPath>
    <clipPath
       clipPathUnits="userSpaceOnUse"
       id="clipPath20">
      <path
         d="m 160.012,238.493 h 71.586 v -78.964 h -71.586 z"
         transform="translate(-231.59811,-194.7173)"
         id="path20" />
    </clipPath>
    <clipPath
       clipPathUnits="userSpaceOnUse"
       id="clipPath22">
      <path
         d="M 0,500 H 500 V 0 H 0 Z"
         transform="matrix(1.3333333,0,0,-1.3333333,0,666.66667)"
         id="path22" />
    </clipPath>
    <clipPath
       clipPathUnits="userSpaceOnUse"
       id="clipPath24">
      <path
         d="M 0,500 H 500 V 0 H 0 Z"
         transform="translate(-256.54791,-175.9424)"
         id="path24" />
    </clipPath>
    <clipPath
       clipPathUnits="userSpaceOnUse"
       id="clipPath25">
      <path
         d="m 203.754,175.942 h 52.794 v -35.67 h -52.794 z"
         transform="translate(-256.54791,-175.9424)"
         id="path25" />
    </clipPath>
    <clipPath
       clipPathUnits="userSpaceOnUse"
       id="clipPath27">
      <path
         d="M 0,500 H 500 V 0 H 0 Z"
         transform="matrix(1.3333333,0,0,-1.3333333,0,666.66667)"
         id="path27" />
    </clipPath>
    <clipPath
       clipPathUnits="userSpaceOnUse"
       id="clipPath29">
      <path
         d="M 0,500 H 500 V 0 H 0 Z"
         transform="translate(-62.030801,-127.7373)"
         id="path29" />
    </clipPath>
    <clipPath
       clipPathUnits="userSpaceOnUse"
       id="clipPath31">
      <path
         d="M 0,500 H 500 V 0 H 0 Z"
         transform="translate(-70.457502,-127.8984)"
         id="path31" />
    </clipPath>
    <clipPath
       clipPathUnits="userSpaceOnUse"
       id="clipPath32">
      <path
         d="M 66.1103,465.695 H 310.801 V 127.305 H 66.1103 Z"
         transform="translate(-70.457502,-127.8984)"
         id="path32" />
    </clipPath>
    <clipPath
       clipPathUnits="userSpaceOnUse"
       id="clipPath34">
      <path
         d="M 0,500 H 500 V 0 H 0 Z"
         transform="matrix(1.3333333,0,0,-1.3333333,0,666.66667)"
         id="path34" />
    </clipPath>
    <clipPath
       clipPathUnits="userSpaceOnUse"
       id="clipPath36">
      <path
         d="M 0,500 H 500 V 0 H 0 Z"
         transform="translate(-69.817402,-122.936)"
         id="path36" />
    </clipPath>
    <clipPath
       clipPathUnits="userSpaceOnUse"
       id="clipPath37">
      <path
         d="M 57.9509,147.869 H 69.8175 V 122.171 H 57.9509 Z"
         transform="translate(-69.817402,-122.936)"
         id="path37" />
    </clipPath>
    <clipPath
       clipPathUnits="userSpaceOnUse"
       id="clipPath39">
      <path
         d="M 0,500 H 500 V 0 H 0 Z"
         transform="matrix(1.3333333,0,0,-1.3333333,0,666.66667)"
         id="path39" />
    </clipPath>
    <clipPath
       clipPathUnits="userSpaceOnUse"
       id="clipPath41">
      <path
         d="M 0,500 H 500 V 0 H 0 Z"
         transform="translate(-66.103001,-143.1504)"
         id="path41" />
    </clipPath>
    <clipPath
       clipPathUnits="userSpaceOnUse"
       id="clipPath42">
      <path
         d="M 66.1103,284.457 H 310.801 V 122.67 H 66.1103 Z"
         transform="translate(-66.110402,-143.187)"
         id="path42" />
    </clipPath>
    <clipPath
       clipPathUnits="userSpaceOnUse"
       id="clipPath44">
      <path
         d="M 0,500 H 500 V 0 H 0 Z"
         transform="matrix(1.3333333,0,0,-1.3333333,0,666.66667)"
         id="path44" />
    </clipPath>
    <clipPath
       clipPathUnits="userSpaceOnUse"
       id="clipPath46">
      <path
         d="M 0,500 H 500 V 0 H 0 Z"
         transform="translate(-74.264202,-164.95901)"
         id="path46" />
    </clipPath>
    <clipPath
       clipPathUnits="userSpaceOnUse"
       id="clipPath48">
      <path
         d="M 0,500 H 500 V 0 H 0 Z"
         transform="translate(-74.264202,-164.95901)"
         id="path48" />
    </clipPath>
    <clipPath
       clipPathUnits="userSpaceOnUse"
       id="clipPath50">
      <path
         d="M 0,500 H 500 V 0 H 0 Z"
         transform="translate(-188.45211,-208.27341)"
         id="path50" />
    </clipPath>
    <clipPath
       clipPathUnits="userSpaceOnUse"
       id="clipPath51">
      <path
         d="m 57.9509,330.321 h 9.4372 V 143.15 h -9.4372 z"
         transform="translate(-67.388201,-325.62211)"
         id="path51" />
    </clipPath>
    <clipPath
       clipPathUnits="userSpaceOnUse"
       id="clipPath53">
      <path
         d="M 0,500 H 500 V 0 H 0 Z"
         transform="matrix(1.3333333,0,0,-1.3333333,0,666.66667)"
         id="path53" />
    </clipPath>
    <clipPath
       clipPathUnits="userSpaceOnUse"
       id="clipPath54">
      <path
         d="M 59.2335,470.892 H 310.756 V 325.619 H 59.2335 Z"
         transform="translate(-310.75591,-463.30571)"
         id="path54" />
    </clipPath>
    <clipPath
       clipPathUnits="userSpaceOnUse"
       id="clipPath56">
      <path
         d="M 0,500 H 500 V 0 H 0 Z"
         transform="matrix(1.3333333,0,0,-1.3333333,0,666.66667)"
         id="path56" />
    </clipPath>
    <clipPath
       clipPathUnits="userSpaceOnUse"
       id="clipPath58">
      <path
         d="M 0,500 H 500 V 0 H 0 Z"
         transform="translate(-323.49221,-439.81351)"
         id="path58" />
    </clipPath>
    <clipPath
       clipPathUnits="userSpaceOnUse"
       id="clipPath60">
      <path
         d="M 0,500 H 500 V 0 H 0 Z"
         transform="translate(-101.4771,-148.5093)"
         id="path60" />
    </clipPath>
    <clipPath
       clipPathUnits="userSpaceOnUse"
       id="clipPath62">
      <path
         d="M 0,500 H 500 V 0 H 0 Z"
         transform="translate(-326.52731,-437.84721)"
         id="path62" />
    </clipPath>
    <clipPath
       clipPathUnits="userSpaceOnUse"
       id="clipPath64">
      <path
         d="M 0,500 H 500 V 0 H 0 Z"
         transform="translate(-96.8218,-150.4116)"
         id="path64" />
    </clipPath>
    <clipPath
       clipPathUnits="userSpaceOnUse"
       id="clipPath66">
      <path
         d="M 0,500 H 500 V 0 H 0 Z"
         transform="translate(-328.21091,-435.69531)"
         id="path66" />
    </clipPath>
    <clipPath
       clipPathUnits="userSpaceOnUse"
       id="clipPath67">
      <path
         d="M 96.4672,440.048 H 327.206 V 306.584 H 96.4672 Z"
         transform="translate(-325.16501,-437.43211)"
         id="path67" />
    </clipPath>
    <clipPath
       clipPathUnits="userSpaceOnUse"
       id="clipPath69">
      <path
         d="M 0,500 H 500 V 0 H 0 Z"
         transform="matrix(1.3333333,0,0,-1.3333333,0,666.66667)"
         id="path69" />
    </clipPath>
    <clipPath
       clipPathUnits="userSpaceOnUse"
       id="clipPath70">
      <path
         d="m 95.5379,308.826 h 4.8101 v -15.223 h -4.8101 z"
         transform="translate(-95.5381,-295.875)"
         id="path70" />
    </clipPath>
    <clipPath
       clipPathUnits="userSpaceOnUse"
       id="clipPath72">
      <path
         d="M 0,500 H 500 V 0 H 0 Z"
         transform="matrix(1.3333333,0,0,-1.3333333,0,666.66667)"
         id="path72" />
    </clipPath>
    <clipPath
       clipPathUnits="userSpaceOnUse"
       id="clipPath74">
      <path
         d="M 0,500 H 500 V 0 H 0 Z"
         transform="translate(-281.25001,-320.57671)"
         id="path74" />
    </clipPath>
    <clipPath
       clipPathUnits="userSpaceOnUse"
       id="clipPath75">
      <path
         d="m 146.309,321.11 h 145.5 v -84.004 h -145.5 z"
         transform="translate(-291.8086,-314.84671)"
         id="path75" />
    </clipPath>
    <clipPath
       clipPathUnits="userSpaceOnUse"
       id="clipPath77">
      <path
         d="M 0,500 H 500 V 0 H 0 Z"
         transform="matrix(1.3333333,0,0,-1.3333333,0,666.66667)"
         id="path77" />
    </clipPath>
    <clipPath
       clipPathUnits="userSpaceOnUse"
       id="clipPath79">
      <path
         d="M 0,500 H 500 V 0 H 0 Z"
         transform="translate(-155.84961,-195.2129)"
         id="path79" />
    </clipPath>
    <clipPath
       clipPathUnits="userSpaceOnUse"
       id="clipPath81">
      <path
         d="M 0,500 H 500 V 0 H 0 Z"
         transform="translate(-156.2275,-238.7676)"
         id="path81" />
    </clipPath>
    <clipPath
       clipPathUnits="userSpaceOnUse"
       id="clipPath83">
      <path
         d="M 0,500 H 500 V 0 H 0 Z"
         transform="translate(-245.8945,-300.16161)"
         id="path83" />
    </clipPath>
    <clipPath
       clipPathUnits="userSpaceOnUse"
       id="clipPath85">
      <path
         d="M 0,500 H 500 V 0 H 0 Z"
         transform="translate(-254.22751,-295.34771)"
         id="path85" />
    </clipPath>
    <clipPath
       clipPathUnits="userSpaceOnUse"
       id="clipPath87">
      <path
         d="M 0,500 H 500 V 0 H 0 Z"
         transform="translate(-178.8286,-243.4248)"
         id="path87" />
    </clipPath>
    <clipPath
       clipPathUnits="userSpaceOnUse"
       id="clipPath89">
      <path
         d="M 0,500 H 500 V 0 H 0 Z"
         transform="translate(-189.1909,-233.7627)"
         id="path89" />
    </clipPath>
    <clipPath
       clipPathUnits="userSpaceOnUse"
       id="clipPath91">
      <path
         d="M 0,500 H 500 V 0 H 0 Z"
         transform="translate(-193.11231,-228.37551)"
         id="path91" />
    </clipPath>
    <clipPath
       clipPathUnits="userSpaceOnUse"
       id="clipPath93">
      <path
         d="M 0,500 H 500 V 0 H 0 Z"
         transform="translate(-197.0649,-234.28271)"
         id="path93" />
    </clipPath>
    <clipPath
       clipPathUnits="userSpaceOnUse"
       id="clipPath95">
      <path
         d="M 0,500 H 500 V 0 H 0 Z"
         transform="translate(-202.12701,-237.0654)"
         id="path95" />
    </clipPath>
    <clipPath
       clipPathUnits="userSpaceOnUse"
       id="clipPath97">
      <path
         d="M 0,500 H 500 V 0 H 0 Z"
         transform="translate(-209.58741,-237.55371)"
         id="path97" />
    </clipPath>
    <clipPath
       clipPathUnits="userSpaceOnUse"
       id="clipPath99">
      <path
         d="M 0,500 H 500 V 0 H 0 Z"
         transform="translate(-213.60301,-242.37161)"
         id="path99" />
    </clipPath>
    <clipPath
       clipPathUnits="userSpaceOnUse"
       id="clipPath101">
      <path
         d="M 0,500 H 500 V 0 H 0 Z"
         transform="translate(-216.74271,-243.94871)"
         id="path101" />
    </clipPath>
    <clipPath
       clipPathUnits="userSpaceOnUse"
       id="clipPath103">
      <path
         d="M 0,500 H 500 V 0 H 0 Z"
         transform="translate(-222.1489,-243.44481)"
         id="path103" />
    </clipPath>
    <clipPath
       clipPathUnits="userSpaceOnUse"
       id="clipPath105">
      <path
         d="M 0,500 H 500 V 0 H 0 Z"
         transform="translate(-227.42871,-246.49271)"
         id="path105" />
    </clipPath>
    <clipPath
       clipPathUnits="userSpaceOnUse"
       id="clipPath107">
      <path
         d="M 0,500 H 500 V 0 H 0 Z"
         transform="translate(-277.87501,-275.5977)"
         id="path107" />
    </clipPath>
    <clipPath
       clipPathUnits="userSpaceOnUse"
       id="clipPath109">
      <path
         d="M 0,500 H 500 V 0 H 0 Z"
         transform="translate(-277.87501,-275.5977)"
         id="path109" />
    </clipPath>
    <clipPath
       clipPathUnits="userSpaceOnUse"
       id="clipPath111">
      <path
         d="M 0,500 H 500 V 0 H 0 Z"
         transform="translate(-273.01861,-297.94871)"
         id="path111" />
    </clipPath>
    <clipPath
       clipPathUnits="userSpaceOnUse"
       id="clipPath113">
      <path
         d="M 0,500 H 500 V 0 H 0 Z"
         transform="translate(-225.79641,-343.29591)"
         id="path113" />
    </clipPath>
    <clipPath
       clipPathUnits="userSpaceOnUse"
       id="clipPath115">
      <path
         d="M 0,500 H 500 V 0 H 0 Z"
         transform="translate(-219.3169,-338.24511)"
         id="path115" />
    </clipPath>
    <clipPath
       clipPathUnits="userSpaceOnUse"
       id="clipPath117">
      <path
         d="M 0,500 H 500 V 0 H 0 Z"
         transform="translate(-229.4536,-312.26901)"
         id="path117" />
    </clipPath>
    <clipPath
       clipPathUnits="userSpaceOnUse"
       id="clipPath118">
      <path
         d="m 197.133,344.522 h 35.17 V 319.02 h -35.17 z"
         transform="translate(-225.79591,-343.29541)"
         id="path118" />
    </clipPath>
    <clipPath
       clipPathUnits="userSpaceOnUse"
       id="clipPath120">
      <path
         d="M 0,500 H 500 V 0 H 0 Z"
         transform="matrix(1.3333333,0,0,-1.3333333,0,666.66667)"
         id="path120" />
    </clipPath>
    <clipPath
       clipPathUnits="userSpaceOnUse"
       id="clipPath121">
      <path
         d="m 194.454,310.217 h 11.641 v -15.51 h -11.641 z"
         transform="translate(-206.09521,-294.70751)"
         id="path121" />
    </clipPath>
    <clipPath
       clipPathUnits="userSpaceOnUse"
       id="clipPath123">
      <path
         d="M 0,500 H 500 V 0 H 0 Z"
         transform="matrix(1.3333333,0,0,-1.3333333,0,666.66667)"
         id="path123" />
    </clipPath>
    <clipPath
       clipPathUnits="userSpaceOnUse"
       id="clipPath124">
      <path
         d="m 194.454,322.795 h 9.185 v -16.352 h -9.185 z"
         transform="translate(-197.1328,-322.79441)"
         id="path124" />
    </clipPath>
    <clipPath
       clipPathUnits="userSpaceOnUse"
       id="clipPath126">
      <path
         d="M 0,500 H 500 V 0 H 0 Z"
         transform="matrix(1.3333333,0,0,-1.3333333,0,666.66667)"
         id="path126" />
    </clipPath>
    <clipPath
       clipPathUnits="userSpaceOnUse"
       id="clipPath128">
      <path
         d="M 0,500 H 500 V 0 H 0 Z"
         transform="translate(-217.01031,-318.47901)"
         id="path128" />
    </clipPath>
    <clipPath
       clipPathUnits="userSpaceOnUse"
       id="clipPath130">
      <path
         d="M 0,500 H 500 V 0 H 0 Z"
         transform="translate(-226.56931,-318.35161)"
         id="path130" />
    </clipPath>
    <clipPath
       clipPathUnits="userSpaceOnUse"
       id="clipPath132">
      <path
         d="M 0,500 H 500 V 0 H 0 Z"
         transform="translate(-432.15431,-145.3521)"
         id="path132" />
    </clipPath>
    <clipPath
       clipPathUnits="userSpaceOnUse"
       id="clipPath133">
      <path
         d="m 432.154,181.441 h 37.645 v -38.113 h -37.645 z"
         transform="translate(-432.15431,-145.3521)"
         id="path133" />
    </clipPath>
    <clipPath
       clipPathUnits="userSpaceOnUse"
       id="clipPath135">
      <path
         d="M 0,500 H 500 V 0 H 0 Z"
         transform="matrix(1.3333333,0,0,-1.3333333,0,666.66667)"
         id="path135" />
    </clipPath>
    <clipPath
       clipPathUnits="userSpaceOnUse"
       id="clipPath137">
      <path
         d="M 0,500 H 500 V 0 H 0 Z"
         transform="translate(-434.33791,-148.3853)"
         id="path137" />
    </clipPath>
    <clipPath
       clipPathUnits="userSpaceOnUse"
       id="clipPath139">
      <path
         d="M 0,500 H 500 V 0 H 0 Z"
         transform="translate(-474.12401,-148.1562)"
         id="path139" />
    </clipPath>
    <clipPath
       clipPathUnits="userSpaceOnUse"
       id="clipPath141">
      <path
         d="M 0,500 H 500 V 0 H 0 Z"
         transform="translate(-434.70411,-126.48101)"
         id="path141" />
    </clipPath>
    <clipPath
       clipPathUnits="userSpaceOnUse"
       id="clipPath143">
      <path
         d="M 0,500 H 500 V 0 H 0 Z"
         transform="translate(-461.33011,-138.0059)"
         id="path143" />
    </clipPath>
    <clipPath
       clipPathUnits="userSpaceOnUse"
       id="clipPath145">
      <path
         d="M 0,500 H 500 V 0 H 0 Z"
         transform="translate(-377.11521,-419.99411)"
         id="path145" />
    </clipPath>
    <clipPath
       clipPathUnits="userSpaceOnUse"
       id="clipPath147">
      <path
         d="M 0,500 H 500 V 0 H 0 Z"
         transform="translate(-419.70611,-425.53611)"
         id="path147" />
    </clipPath>
    <clipPath
       clipPathUnits="userSpaceOnUse"
       id="clipPath149">
      <path
         d="M 0,500 H 500 V 0 H 0 Z"
         transform="translate(-397.36821,-273.76811)"
         id="path149" />
    </clipPath>
    <clipPath
       clipPathUnits="userSpaceOnUse"
       id="clipPath151">
      <path
         d="M 0,500 H 500 V 0 H 0 Z"
         transform="translate(-411.93361,-286.02491)"
         id="path151" />
    </clipPath>
    <clipPath
       clipPathUnits="userSpaceOnUse"
       id="clipPath153">
      <path
         d="M 0,500 H 500 V 0 H 0 Z"
         id="path153" />
    </clipPath>
    <clipPath
       clipPathUnits="userSpaceOnUse"
       id="clipPath155">
      <path
         d="M 0,500 H 500 V 0 H 0 Z"
         transform="translate(-410.83891,-133.1553)"
         id="path155" />
    </clipPath>
    <clipPath
       clipPathUnits="userSpaceOnUse"
       id="clipPath157">
      <path
         d="M 0,500 H 500 V 0 H 0 Z"
         transform="translate(-437.05961,-244.65281)"
         id="path157" />
    </clipPath>
    <clipPath
       clipPathUnits="userSpaceOnUse"
       id="clipPath159">
      <path
         d="M 0,500 H 500 V 0 H 0 Z"
         transform="translate(-428.76951,-123.24221)"
         id="path159" />
    </clipPath>
    <clipPath
       clipPathUnits="userSpaceOnUse"
       id="clipPath161">
      <path
         d="M 0,500 H 500 V 0 H 0 Z"
         transform="translate(-403.49901,-135.2295)"
         id="path161" />
    </clipPath>
    <clipPath
       clipPathUnits="userSpaceOnUse"
       id="clipPath163">
      <path
         d="M 0,500 H 500 V 0 H 0 Z"
         transform="translate(-417.01461,-217.0527)"
         id="path163" />
    </clipPath>
    <clipPath
       clipPathUnits="userSpaceOnUse"
       id="clipPath165">
      <path
         d="M 0,500 H 500 V 0 H 0 Z"
         transform="translate(-432.99021,-284.94141)"
         id="path165" />
    </clipPath>
    <clipPath
       clipPathUnits="userSpaceOnUse"
       id="clipPath167">
      <path
         d="M 0,500 H 500 V 0 H 0 Z"
         transform="translate(-425.35551,-307.46481)"
         id="path167" />
    </clipPath>
    <clipPath
       clipPathUnits="userSpaceOnUse"
       id="clipPath169">
      <path
         d="M 0,500 H 500 V 0 H 0 Z"
         transform="translate(-430.87501,-302.90581)"
         id="path169" />
    </clipPath>
    <clipPath
       clipPathUnits="userSpaceOnUse"
       id="clipPath171">
      <path
         d="M 0,500 H 500 V 0 H 0 Z"
         transform="translate(-428.79301,-314.53911)"
         id="path171" />
    </clipPath>
    <clipPath
       clipPathUnits="userSpaceOnUse"
       id="clipPath173">
      <path
         d="M 0,500 H 500 V 0 H 0 Z"
         transform="translate(-429.94341,-312.89501)"
         id="path173" />
    </clipPath>
    <clipPath
       clipPathUnits="userSpaceOnUse"
       id="clipPath175">
      <path
         d="M 0,500 H 500 V 0 H 0 Z"
         transform="translate(-430.41211,-313.80321)"
         id="path175" />
    </clipPath>
    <clipPath
       clipPathUnits="userSpaceOnUse"
       id="clipPath177">
      <path
         d="M 0,500 H 500 V 0 H 0 Z"
         transform="translate(-426.81151,-302.52981)"
         id="path177" />
    </clipPath>
    <clipPath
       clipPathUnits="userSpaceOnUse"
       id="clipPath179">
      <path
         d="M 0,500 H 500 V 0 H 0 Z"
         transform="translate(-413.13091,-312.65141)"
         id="path179" />
    </clipPath>
    <clipPath
       clipPathUnits="userSpaceOnUse"
       id="clipPath181">
      <path
         d="M 0,500 H 500 V 0 H 0 Z"
         transform="translate(-415.23541,-288.84281)"
         id="path181" />
    </clipPath>
    <clipPath
       clipPathUnits="userSpaceOnUse"
       id="clipPath183">
      <path
         d="M 0,500 H 500 V 0 H 0 Z"
         transform="translate(-416.58591,-303.99321)"
         id="path183" />
    </clipPath>
    <clipPath
       clipPathUnits="userSpaceOnUse"
       id="clipPath185">
      <path
         d="M 0,500 H 500 V 0 H 0 Z"
         transform="translate(-418.39451,-308.84961)"
         id="path185" />
    </clipPath>
    <clipPath
       clipPathUnits="userSpaceOnUse"
       id="clipPath187">
      <path
         d="M 0,500 H 500 V 0 H 0 Z"
         transform="translate(-415.74411,-295.88961)"
         id="path187" />
    </clipPath>
    <clipPath
       clipPathUnits="userSpaceOnUse"
       id="clipPath189">
      <path
         d="M 0,500 H 500 V 0 H 0 Z"
         transform="translate(-406.25391,-307.81741)"
         id="path189" />
    </clipPath>
    <clipPath
       clipPathUnits="userSpaceOnUse"
       id="clipPath191">
      <path
         d="M 0,500 H 500 V 0 H 0 Z"
         transform="translate(-407.21871,-304.32711)"
         id="path191" />
    </clipPath>
    <clipPath
       clipPathUnits="userSpaceOnUse"
       id="clipPath193">
      <path
         d="M 0,500 H 500 V 0 H 0 Z"
         transform="translate(-413.24611,-305.26901)"
         id="path193" />
    </clipPath>
    <clipPath
       clipPathUnits="userSpaceOnUse"
       id="clipPath195">
      <path
         d="M 0,500 H 500 V 0 H 0 Z"
         transform="translate(-317.31351,-245.72411)"
         id="path195" />
    </clipPath>
    <clipPath
       clipPathUnits="userSpaceOnUse"
       id="clipPath196">
      <path
         d="m 317.314,252.347 h 8.747 v -6.623 h -8.747 z"
         transform="translate(-317.31351,-245.72411)"
         id="path196" />
    </clipPath>
    <clipPath
       clipPathUnits="userSpaceOnUse"
       id="clipPath198">
      <path
         d="M 0,500 H 500 V 0 H 0 Z"
         transform="matrix(1.3333333,0,0,-1.3333333,0,666.66667)"
         id="path198" />
    </clipPath>
    <clipPath
       clipPathUnits="userSpaceOnUse"
       id="clipPath200">
      <path
         d="M 0,500 H 500 V 0 H 0 Z"
         transform="translate(-334.36131,-235.88181)"
         id="path200" />
    </clipPath>
    <clipPath
       clipPathUnits="userSpaceOnUse"
       id="clipPath201">
      <path
         d="m 334.361,244.132 h 11.5 v -8.25 h -11.5 z"
         transform="translate(-334.36131,-235.88181)"
         id="path201" />
    </clipPath>
    <clipPath
       clipPathUnits="userSpaceOnUse"
       id="clipPath203">
      <path
         d="M 0,500 H 500 V 0 H 0 Z"
         transform="matrix(1.3333333,0,0,-1.3333333,0,666.66667)"
         id="path203" />
    </clipPath>
    <clipPath
       clipPathUnits="userSpaceOnUse"
       id="clipPath205">
      <path
         d="M 0,500 H 500 V 0 H 0 Z"
         transform="translate(-402.18551,-223.1958)"
         id="path205" />
    </clipPath>
    <clipPath
       clipPathUnits="userSpaceOnUse"
       id="clipPath207">
      <path
         d="M 0,500 H 500 V 0 H 0 Z"
         transform="translate(-395.92481,-219.58691)"
         id="path207" />
    </clipPath>
    <clipPath
       clipPathUnits="userSpaceOnUse"
       id="clipPath208">
      <path
         d="m 381.306,225.527 h 8.954 v -14.718 h -8.954 z"
         transform="translate(-390.26071,-215.58791)"
         id="path208" />
    </clipPath>
    <clipPath
       clipPathUnits="userSpaceOnUse"
       id="clipPath210">
      <path
         d="M 0,500 H 500 V 0 H 0 Z"
         transform="matrix(1.3333333,0,0,-1.3333333,0,666.66667)"
         id="path210" />
    </clipPath>
    <clipPath
       clipPathUnits="userSpaceOnUse"
       id="clipPath211">
      <path
         d="m 365.515,259.102 h 37.246 v -66.511 h -37.246 z"
         transform="translate(-402.76171,-215.59811)"
         id="path211" />
    </clipPath>
    <clipPath
       clipPathUnits="userSpaceOnUse"
       id="clipPath213">
      <path
         d="M 0,500 H 500 V 0 H 0 Z"
         transform="matrix(1.3333333,0,0,-1.3333333,0,666.66667)"
         id="path213" />
    </clipPath>
    <clipPath
       clipPathUnits="userSpaceOnUse"
       id="clipPath215">
      <path
         d="M 0,500 H 500 V 0 H 0 Z"
         transform="translate(-396.50101,-211.97951)"
         id="path215" />
    </clipPath>
    <clipPath
       clipPathUnits="userSpaceOnUse"
       id="clipPath216">
      <path
         d="m 389.006,216.695 h 13.755 v -24.104 h -13.755 z"
         transform="translate(-396.50101,-211.97951)"
         id="path216" />
    </clipPath>
    <clipPath
       clipPathUnits="userSpaceOnUse"
       id="clipPath218">
      <path
         d="M 0,500 H 500 V 0 H 0 Z"
         transform="matrix(1.3333333,0,0,-1.3333333,0,666.66667)"
         id="path218" />
    </clipPath>
    <clipPath
       clipPathUnits="userSpaceOnUse"
       id="clipPath219">
      <path
         d="m 302.26,269.828 h 56.018 V 236.046 H 302.26 Z"
         transform="translate(-358.27731,-238.0815)"
         id="path219" />
    </clipPath>
    <clipPath
       clipPathUnits="userSpaceOnUse"
       id="clipPath221">
      <path
         d="M 0,500 H 500 V 0 H 0 Z"
         transform="matrix(1.3333333,0,0,-1.3333333,0,666.66667)"
         id="path221" />
    </clipPath>
    <clipPath
       clipPathUnits="userSpaceOnUse"
       id="clipPath222">
      <path
         d="m 302.26,268.995 h 56.018 V 236.046 H 302.26 Z"
         transform="translate(-358.27731,-237.2388)"
         id="path222" />
    </clipPath>
    <clipPath
       clipPathUnits="userSpaceOnUse"
       id="clipPath224">
      <path
         d="M 0,500 H 500 V 0 H 0 Z"
         transform="matrix(1.3333333,0,0,-1.3333333,0,666.66667)"
         id="path224" />
    </clipPath>
    <clipPath
       clipPathUnits="userSpaceOnUse"
       id="clipPath225">
      <path
         d="m 360.109,250.61 h 33.613 v -54.641 h -33.613 z"
         transform="translate(-360.60841,-232.70411)"
         id="path225" />
    </clipPath>
    <clipPath
       clipPathUnits="userSpaceOnUse"
       id="clipPath227">
      <path
         d="M 0,500 H 500 V 0 H 0 Z"
         transform="matrix(1.3333333,0,0,-1.3333333,0,666.66667)"
         id="path227" />
    </clipPath>
    <clipPath
       clipPathUnits="userSpaceOnUse"
       id="clipPath228">
      <path
         d="m 302.26,278.021 h 57.776 V 242.194 H 302.26 Z"
         transform="translate(-360.03611,-248.27981)"
         id="path228" />
    </clipPath>
    <clipPath
       clipPathUnits="userSpaceOnUse"
       id="clipPath230">
      <path
         d="M 0,500 H 500 V 0 H 0 Z"
         transform="matrix(1.3333333,0,0,-1.3333333,0,666.66667)"
         id="path230" />
    </clipPath>
    <clipPath
       clipPathUnits="userSpaceOnUse"
       id="clipPath232">
      <path
         d="M 0,500 H 500 V 0 H 0 Z"
         transform="translate(-432.50591,-245.14701)"
         id="path232" />
    </clipPath>
    <clipPath
       clipPathUnits="userSpaceOnUse"
       id="clipPath234">
      <path
         d="M 0,500 H 500 V 0 H 0 Z"
         transform="translate(-432.99021,-284.94141)"
         id="path234" />
    </clipPath>
  </defs>
  <g
     id="layer-MC0">
    <path
       id="path1"
       d="m 0,0 c 92.011,-53.122 92.011,-139.25 -0.001,-192.374 -92.011,-53.122 -241.19,-53.123 -333.2,0 -92.011,53.123 -92.01,139.251 0.001,192.374 92.011,53.122 241.19,53.123 333.2,0"
       style="display:inline;fill:#f0f0f0;fill-opacity:1;fill-rule:nonzero;stroke:none"
       transform="matrix(1.3333333,0,0,-1.3333333,554.19787,338.44987)"
       clip-path="url(#clipPath2)" />
  </g>
  <g
     id="layer-MC1">
    <path
       id="path3"
       d="M 0,0 C -15.45,8.92 -15.45,23.382 0,32.302 15.449,41.221 40.498,41.221 55.947,32.301 71.397,23.381 71.397,8.92 55.947,0 40.498,-8.92 15.449,-8.92 0,0"
       style="fill:#e1e1e1;fill-opacity:1;fill-rule:nonzero;stroke:none"
       transform="matrix(1.3333333,0,0,-1.3333333,512.4844,529.63213)"
       clip-path="url(#clipPath4)" />
    <path
       id="path5"
       d="m 0,0 -40.64,23.464 c -2.292,1.323 -2.292,3.468 0,4.79 l 236.389,136.48 c 2.291,1.323 6.005,1.323 8.297,0 l 40.642,-23.463 c 2.291,-1.323 2.291,-3.468 0,-4.791 L 8.297,0 C 6.006,-1.323 2.292,-1.323 0,0"
       style="fill:#e1e1e1;fill-opacity:1;fill-rule:nonzero;stroke:none"
       transform="matrix(1.3333333,0,0,-1.3333333,93.4916,531.28253)"
       clip-path="url(#clipPath6)" />
  </g>
  <g
     id="layer-MC2">
    <path
       id="path7"
       d="m 0,0 34.938,20.201 c 3.6,2.079 5.401,4.804 5.401,7.529 0.001,2.726 0.015,4.86 0.015,4.86 L 4.105,53.03 c -1.92,1.109 -3.478,3.805 -3.478,6.024 v 43.074 L -60.395,66.866 -60.397,23.792 c 0,-2.218 1.556,-4.915 3.477,-6.024 L -26.084,0 C -18.881,-4.159 -7.203,-4.158 0,0"
       style="fill:#00dfbf;fill-opacity:1;fill-rule:nonzero;stroke:none"
       transform="matrix(1.3333333,0,0,-1.3333333,288.26693,475.52533)"
       clip-path="url(#clipPath8)" />
    <g
       opacity="0.600006"
       id="g10"
       clip-path="url(#clipPath11)">
      <path
         d="m 0,0 34.938,20.201 c 3.6,2.079 5.401,4.804 5.401,7.529 0.001,2.726 0.015,4.86 0.015,4.86 L 4.105,53.03 c -1.92,1.109 -3.478,3.805 -3.478,6.024 v 43.074 L -60.395,66.866 -60.397,23.792 c 0,-2.218 1.556,-4.915 3.477,-6.024 L -26.084,0 C -18.881,-4.159 -7.203,-4.158 0,0"
         style="fill:#000000;fill-opacity:1;fill-rule:nonzero;stroke:none"
         transform="matrix(1.3333333,0,0,-1.3333333,288.26693,475.52533)"
         clip-path="url(#clipPath9)"
         id="path10" />
    </g>
    <g
       opacity="0.300003"
       id="g13"
       clip-path="url(#clipPath14)">
      <path
         d="m 0,0 v -4.839 l -11.184,6.445 c -1.907,1.104 -3.474,3.795 -3.474,6.024 V 50.7 l 11.626,6.706 c 0.241,-2.951 0.502,-6.003 0.743,-8.975 l -8.152,-4.719 V 10.06 c 0,-2.229 1.546,-4.92 3.474,-6.024 z"
         style="fill:#000000;fill-opacity:1;fill-rule:nonzero;stroke:none"
         transform="matrix(1.3333333,0,0,-1.3333333,227.2728,453.97267)"
         clip-path="url(#clipPath12)"
         id="path13" />
    </g>
    <path
       id="path15"
       d="m 0,0 c 0,-2.218 1.557,-4.915 3.478,-6.024 l 26.621,-15.334 c 7.203,-4.159 18.882,-4.16 26.086,-0.003 l 34.954,20.198 c 7.204,4.158 7.205,10.899 0.002,15.057 L 64.502,29.24 c -1.92,1.109 -3.478,3.805 -3.478,6.023 V 68.92 L 0,33.658 Z"
       style="fill:#00dfbf;fill-opacity:1;fill-rule:nonzero;stroke:none"
       transform="matrix(1.3333333,0,0,-1.3333333,213.3496,440.57027)"
       clip-path="url(#clipPath16)" />
    <g
       opacity="0.300003"
       id="g18"
       clip-path="url(#clipPath19)">
      <path
         d="m 0,0 c 0,-2.218 1.557,-4.915 3.478,-6.024 l 26.621,-15.334 c 7.203,-4.159 18.882,-4.16 26.086,-0.003 l 34.954,20.198 c 7.204,4.158 7.205,10.899 0.002,15.057 L 64.502,29.24 c -1.92,1.109 -3.478,3.805 -3.478,6.023 V 68.92 L 0,33.658 Z"
         style="fill:#000000;fill-opacity:1;fill-rule:nonzero;stroke:none"
         transform="matrix(1.3333333,0,0,-1.3333333,213.3496,440.57027)"
         clip-path="url(#clipPath17)"
         id="path18" />
    </g>
    <g
       opacity="0.5"
       id="g21"
       clip-path="url(#clipPath22)">
      <path
         d="m 0,0 v 0.005 l -7.083,4.09 c -1.921,1.109 -3.479,3.805 -3.479,6.023 V 43.775 L -71.586,8.513 v -33.658 c 0,-2.218 1.557,-4.915 3.478,-6.024 l 6.961,-4.019 z"
         style="fill:#000000;fill-opacity:1;fill-rule:nonzero;stroke:none"
         transform="matrix(1.3333333,0,0,-1.3333333,308.79747,407.0436)"
         clip-path="url(#clipPath20)"
         id="path21" />
    </g>
    <path
       id="path23"
       d="m 0,0 v -4.859 c 0,-2.731 -1.808,-5.442 -5.401,-7.53 l -34.943,-20.19 c -3.454,-2.007 -7.932,-3.011 -12.449,-3.092 v 4.839 c 4.517,0.061 8.995,1.105 12.449,3.093 L -5.401,-7.53 C -1.808,-5.462 0,-2.731 0,0"
       style="fill:#00dfbf;fill-opacity:1;fill-rule:nonzero;stroke:none"
       transform="matrix(1.3333333,0,0,-1.3333333,342.06387,432.0768)"
       clip-path="url(#clipPath24)" />
    <g
       opacity="0.5"
       id="g26"
       clip-path="url(#clipPath27)">
      <path
         d="m 0,0 v -4.859 c 0,-2.731 -1.808,-5.442 -5.401,-7.53 l -34.943,-20.19 c -3.454,-2.007 -7.932,-3.011 -12.449,-3.092 v 4.839 c 4.517,0.061 8.995,1.105 12.449,3.093 L -5.401,-7.53 C -1.808,-5.462 0,-2.731 0,0"
         style="fill:#000000;fill-opacity:1;fill-rule:nonzero;stroke:none"
         transform="matrix(1.3333333,0,0,-1.3333333,342.06387,432.0768)"
         clip-path="url(#clipPath25)"
         id="path26" />
    </g>
    <path
       id="path28"
       d="m 0,0 c 2.252,-1.3 6.024,-1.23 8.425,0.156 30.002,17.321 206,118.931 235.997,136.25 2.401,1.386 4.346,4.756 4.346,7.529 v 190.914 c 0,2.772 -1.825,6.073 -4.077,7.374 -2.253,1.3 -6.024,1.23 -8.426,-0.156 L 0.272,205.817 c -2.401,-1.386 -4.347,-4.757 -4.347,-7.53 L -4.078,7.374 C -4.078,4.602 -2.252,1.3 0,0"
       style="fill:#00dfbf;fill-opacity:1;fill-rule:nonzero;stroke:none"
       transform="matrix(1.3333333,0,0,-1.3333333,82.707733,496.35027)"
       clip-path="url(#clipPath29)" />
    <path
       id="path30"
       d="m 0,0 235.996,136.249 c 2.401,1.386 4.347,4.757 4.347,7.53 v 190.914 c 0,2.772 -1.946,3.896 -4.347,2.51 L 0.003,200.953 c -2.401,-1.387 -4.347,-4.758 -4.347,-7.53 L -4.347,2.51 C -4.347,-0.262 -2.401,-1.386 0,0"
       style="fill:#00dfbf;fill-opacity:1;fill-rule:nonzero;stroke:none"
       transform="matrix(1.3333333,0,0,-1.3333333,93.943333,496.13547)"
       clip-path="url(#clipPath31)" />
    <g
       opacity="0.5"
       id="g33"
       clip-path="url(#clipPath34)">
      <path
         d="m 0,0 235.996,136.249 c 2.401,1.386 4.347,4.757 4.347,7.53 v 190.914 c 0,2.772 -1.946,3.896 -4.347,2.51 L 0.003,200.953 c -2.401,-1.387 -4.347,-4.758 -4.347,-7.53 L -4.347,2.51 C -4.347,-0.262 -2.401,-1.386 0,0"
         style="fill:#000000;fill-opacity:1;fill-rule:nonzero;stroke:none"
         transform="matrix(1.3333333,0,0,-1.3333333,93.943333,496.13547)"
         clip-path="url(#clipPath32)"
         id="path33" />
    </g>
    <path
       id="path35"
       d="m 0,0 c -2.409,-1.064 -5.742,-1.024 -7.791,0.161 -2.249,1.305 -4.076,4.598 -4.076,7.389 v 17.383 l 8.153,-4.719 V 2.831 C -3.714,0.301 -2.108,-0.843 0,0"
       style="fill:#00dfbf;fill-opacity:1;fill-rule:nonzero;stroke:none"
       transform="matrix(1.3333333,0,0,-1.3333333,93.089867,502.752)"
       clip-path="url(#clipPath36)" />
    <g
       opacity="0.5"
       id="g38"
       clip-path="url(#clipPath39)">
      <path
         d="m 0,0 c -2.409,-1.064 -5.742,-1.024 -7.791,0.161 -2.249,1.305 -4.076,4.598 -4.076,7.389 v 17.383 l 8.153,-4.719 V 2.831 C -3.714,0.301 -2.108,-0.843 0,0"
         style="fill:#000000;fill-opacity:1;fill-rule:nonzero;stroke:none"
         transform="matrix(1.3333333,0,0,-1.3333333,93.089867,502.752)"
         clip-path="url(#clipPath37)"
         id="path38" />
    </g>
    <path
       id="path40"
       d="m 0,0 0.007,-17.376 c 0,-2.772 1.947,-3.896 4.347,-2.51 L 240.35,116.363 c 2.401,1.386 4.348,4.757 4.348,7.53 v 17.414 z"
       style="fill:#00dfbf;fill-opacity:1;fill-rule:nonzero;stroke:none"
       transform="matrix(1.3333333,0,0,-1.3333333,88.137333,475.79947)"
       clip-path="url(#clipPath41)" />
    <g
       opacity="0.300003"
       id="g43"
       clip-path="url(#clipPath44)">
      <path
         d="m 0,0 v -17.413 c 0,-2.772 1.946,-3.896 4.347,-2.51 l 235.996,136.249 c 2.401,1.386 4.347,4.757 4.347,7.53 v 17.414 z"
         style="fill:#000000;fill-opacity:1;fill-rule:nonzero;stroke:none"
         transform="matrix(1.3333333,0,0,-1.3333333,88.1472,475.75067)"
         clip-path="url(#clipPath42)"
         id="path43" />
    </g>
    <path
       id="path45"
       d="m 0,0 0.002,153.655 c 0,1.664 1.168,3.687 2.608,4.518 l 223.156,128.84 c 1.442,0.831 2.609,0.157 2.609,-1.506 l 0.007,-153.659 c 0,-1.663 -1.168,-3.686 -2.608,-4.518 L 2.608,-1.506 C 1.168,-2.337 0,-1.663 0,0"
       style="fill:#00dfbf;fill-opacity:1;fill-rule:nonzero;stroke:none"
       transform="matrix(1.3333333,0,0,-1.3333333,99.018933,446.72133)"
       clip-path="url(#clipPath46)" />
    <path
       id="path47"
       d="m 0,0 0.002,153.655 c 0,1.664 1.168,3.687 2.608,4.518 l 223.156,128.84 c 1.442,0.831 2.609,0.157 2.609,-1.506 l 0.007,-153.659 c 0,-1.663 -1.168,-3.686 -2.608,-4.518 L 2.608,-1.506 C 1.168,-2.337 0,-1.663 0,0"
       style="fill:#1a2e35;fill-opacity:1;fill-rule:nonzero;stroke:none"
       transform="matrix(1.3333333,0,0,-1.3333333,99.018933,446.72133)"
       clip-path="url(#clipPath48)" />
    <path
       id="path49"
       d="m 0,0 c -2.253,-1.301 -4.079,-4.464 -4.079,-7.065 0,-2.601 1.827,-3.655 4.079,-2.354 2.253,1.3 4.08,4.463 4.08,7.065 C 4.079,0.247 2.253,1.301 0,0"
       style="fill:#00dfbf;fill-opacity:1;fill-rule:nonzero;stroke:none"
       transform="matrix(1.3333333,0,0,-1.3333333,251.26947,388.9688)"
       clip-path="url(#clipPath50)" />
    <g
       opacity="0.699997"
       id="g52"
       clip-path="url(#clipPath53)">
      <path
         d="m 0,0 c -0.783,-1.365 -1.265,-2.911 -1.285,-4.297 v -178.175 l -8.153,4.719 0.005,178.155 c 0,1.386 0.498,2.931 1.281,4.297 z"
         style="fill:#000000;fill-opacity:1;fill-rule:nonzero;stroke:none"
         transform="matrix(1.3333333,0,0,-1.3333333,89.850933,232.50387)"
         clip-path="url(#clipPath51)"
         id="path52" />
    </g>
    <g
       opacity="0.300003"
       id="g55"
       clip-path="url(#clipPath56)">
      <path
         d="m 0,0 c -0.309,2.241 -2.117,3.053 -4.308,1.799 l -235.988,-136.257 c -1.193,-0.689 -2.272,-1.861 -3.074,-3.229 l -8.152,4.709 c 0.791,1.347 1.871,2.54 3.074,3.228 L -12.46,6.498 c 2.406,1.387 6.168,1.459 8.43,0.154 C -1.974,5.469 -0.277,2.601 0,0"
         style="fill:#000000;fill-opacity:1;fill-rule:nonzero;stroke:none"
         transform="matrix(1.3333333,0,0,-1.3333333,414.3412,48.925733)"
         clip-path="url(#clipPath54)"
         id="path55" />
    </g>
  </g>
  <g
     id="layer-MC3">
    <path
       id="path57"
       d="m 0,0 c -0.568,0.341 -1.344,0.329 -2.218,-0.176 l -222.687,-128.587 c -1.683,-0.971 -3.047,-3.332 -3.047,-5.275 l 0.002,-152.718 c 0,-1.184 0.507,-2.23 1.284,-2.647 0.499,-0.268 3.115,-1.791 3.892,-2.208 0.499,-0.268 1.107,-0.277 1.765,0.101 L 1.672,-162.873 c 1.683,0.969 3.049,3.33 3.049,5.272 v 153.46 c 0,1.001 -0.364,1.696 -0.945,2.001 C 3.229,-1.854 0.561,-0.337 0,0"
       style="fill:#00dfbf;fill-opacity:1;fill-rule:nonzero;stroke:none"
       transform="matrix(1.3333333,0,0,-1.3333333,431.32293,80.248667)"
       clip-path="url(#clipPath58)" />
    <path
       id="path59"
       d="m 0,0 c -0.851,0 -1.542,1.05 -1.542,2.34 v 152.719 c 0,1.75 1.28,3.968 2.795,4.843 l 222.686,128.587 c 0.395,0.228 0.779,0.349 1.11,0.349 0.743,0 1.187,-0.626 1.187,-1.675 V 133.704 c 0,-1.75 -1.281,-3.966 -2.798,-4.839 L 0.756,0.228 C 0.494,0.077 0.24,0 0,0"
       style="fill:#fafafa;fill-opacity:1;fill-rule:nonzero;stroke:none"
       transform="matrix(1.3333333,0,0,-1.3333333,135.3028,468.65427)"
       clip-path="url(#clipPath60)" />
    <path
       id="path61"
       d="m 0,0 c -0.41,0 -0.872,-0.134 -1.361,-0.416 l -222.686,-128.586 c -1.682,-0.972 -3.046,-3.334 -3.046,-5.277 v -152.719 c 0,-1.536 0.853,-2.84 2.043,-2.84 0.315,0 0.654,0.091 1.006,0.295 l 222.681,128.637 c 1.683,0.969 3.049,3.329 3.049,5.272 V -2.175 C 1.686,-0.797 0.999,0 0,0 m 0,-1 v 0 c 0.596,0 0.686,-0.736 0.686,-1.175 v -153.459 c 0,-1.594 -1.167,-3.611 -2.55,-4.407 l -222.678,-128.636 c -0.187,-0.107 -0.357,-0.161 -0.508,-0.161 -0.555,0 -1.043,0.86 -1.043,1.84 v 152.719 c 0,1.593 1.166,3.613 2.546,4.41 L -0.861,-1.282 C -0.457,-1.049 -0.17,-1 0,-1"
       style="fill:#e1e1e1;fill-opacity:1;fill-rule:nonzero;stroke:none"
       transform="matrix(1.3333333,0,0,-1.3333333,435.36973,82.8704)"
       clip-path="url(#clipPath62)" />
    <path
       id="path63"
       d="m 0,0 c 0.33,-0.175 2.699,-1.526 3.737,-2.118 -0.7,0.499 -1.07,1.357 -1.121,2.558 v 142.751 l -3.9,2.282 V 2.644 C -1.284,1.466 -0.776,0.412 0,0"
       style="fill:#f0f0f0;fill-opacity:1;fill-rule:nonzero;stroke:none"
       transform="matrix(1.3333333,0,0,-1.3333333,129.09573,466.11787)"
       clip-path="url(#clipPath64)" />
    <path
       id="path65"
       d="M 0,0 C -0.013,1.924 -1.369,2.703 -3.045,1.736 L -225.73,-126.851 c -1.683,-0.971 -3.046,-3.334 -3.046,-5.276 l 0.003,-9.965 L 0,-9.999 Z"
       style="fill:#00dfbf;fill-opacity:1;fill-rule:nonzero;stroke:none"
       transform="matrix(1.3333333,0,0,-1.3333333,437.61453,85.7396)"
       clip-path="url(#clipPath66)" />
    <g
       opacity="0.399994"
       id="g68"
       clip-path="url(#clipPath69)">
      <path
         d="m 0,0 -222.681,-128.586 c -0.834,-0.489 -1.6,-1.313 -2.146,-2.262 l -3.871,2.242 c 0.546,0.939 1.296,1.755 2.12,2.225 L -3.891,2.206 c 0.872,0.507 1.649,0.515 2.214,0.18 C -1.131,2.05 1.399,0.613 2.041,0.269 1.504,0.527 0.786,0.45 0,0"
         style="fill:#ffffff;fill-opacity:1;fill-rule:nonzero;stroke:none"
         transform="matrix(1.3333333,0,0,-1.3333333,433.55333,83.423867)"
         clip-path="url(#clipPath67)"
         id="path68" />
    </g>
    <g
       opacity="0.149994"
       id="g71"
       clip-path="url(#clipPath72)">
      <path
         d="m 0,0 0.002,9.905 c 0,0.987 0.362,2.079 0.927,3.046 L 4.81,10.719 C 4.244,9.761 3.899,8.678 3.899,7.691 v -9.963 z"
         style="fill:#000000;fill-opacity:1;fill-rule:nonzero;stroke:none"
         transform="matrix(1.3333333,0,0,-1.3333333,127.38413,272.16667)"
         clip-path="url(#clipPath70)"
         id="path71" />
    </g>
    <path
       id="path73"
       d="m 0,0 -133.375,-77.003 c -1.229,-0.71 -2.225,-2.436 -2.225,-3.856 v -38.236 c 0,-1.419 0.997,-3.144 2.227,-3.851 l 3.897,-2.242 c 1.23,-0.708 3.224,-0.707 4.454,0.002 L 8.333,-48.193 c 1.23,0.71 2.227,2.436 2.228,3.856 l 0.015,38.246 c 10e-4,1.42 -0.996,3.144 -2.226,3.852 L 4.453,0.003 C 3.223,0.711 1.229,0.71 0,0"
       style="fill:#00dfbf;fill-opacity:1;fill-rule:nonzero;stroke:none"
       transform="matrix(1.3333333,0,0,-1.3333333,375,239.23107)"
       clip-path="url(#clipPath74)" />
    <g
       opacity="0.5"
       id="g76"
       clip-path="url(#clipPath77)">
      <path
         d="m 0,0 c -0.153,1.151 -1.089,1.573 -2.21,0.925 l -133.369,-77.001 c -0.616,-0.349 -1.171,-0.966 -1.572,-1.665 l -8.349,4.822 c 0.402,0.689 0.957,1.295 1.563,1.645 L -10.558,5.727 c 1.224,0.709 3.218,0.719 4.452,0.01 L -2.21,3.496 C -1.079,2.848 -0.144,1.336 0,0"
         style="fill:#ffffff;fill-opacity:1;fill-rule:nonzero;stroke:none"
         transform="matrix(1.3333333,0,0,-1.3333333,389.07813,246.87107)"
         clip-path="url(#clipPath75)"
         id="path76" />
    </g>
    <path
       id="path78"
       d="m 0,0 c -1.234,-0.524 -2.961,-0.463 -4.071,0.175 l -3.896,2.241 c -1.234,0.709 -2.231,2.437 -2.231,3.855 v 38.233 c 0,0.72 0.257,1.512 0.657,2.21 l 8.349,-4.821 c -0.412,-0.699 -0.659,-1.48 -0.659,-2.19 V 1.46 C -1.851,0.185 -1.049,-0.401 0,0"
       style="fill:#1a2e35;fill-opacity:1;fill-rule:nonzero;stroke:none"
       transform="matrix(1.3333333,0,0,-1.3333333,207.79947,406.3828)"
       clip-path="url(#clipPath79)" />
    <path
       id="path80"
       d="m 0,0 133.374,77.003 c 1.23,0.71 2.226,0.135 2.225,-1.285 l -0.016,-38.247 c -0.001,-1.419 -0.998,-3.145 -2.228,-3.855 L 0,-43.376 c -1.229,-0.71 -2.226,-0.135 -2.226,1.285 V -3.855 C -2.226,-2.436 -1.229,-0.71 0,0"
       style="fill:#00dfbf;fill-opacity:1;fill-rule:nonzero;stroke:none"
       transform="matrix(1.3333333,0,0,-1.3333333,208.30333,348.30987)"
       clip-path="url(#clipPath81)" />
    <path
       id="path82"
       d="m 0,0 -98.023,-56.589 c -0.606,-0.35 -1.161,-0.956 -1.562,-1.645 l 8.348,-4.822 c 0.401,0.699 0.956,1.316 1.572,1.665 L 8.333,-4.812 Z"
       style="fill:#375a64;fill-opacity:1;fill-rule:nonzero;stroke:none"
       transform="matrix(1.3333333,0,0,-1.3333333,327.85933,266.4512)"
       clip-path="url(#clipPath83)" />
    <path
       id="path84"
       d="m 0,0 -98,-56.58 c -1.229,-0.71 -2.226,-2.436 -2.226,-3.856 v -38.235 c 0,-1.42 0.997,-1.995 2.226,-1.286 l 98,56.581 z"
       style="fill:#2b454e;fill-opacity:1;fill-rule:nonzero;stroke:none"
       transform="matrix(1.3333333,0,0,-1.3333333,338.97,272.86973)"
       clip-path="url(#clipPath85)" />
    <path
       id="path86"
       d="m 0,0 50.567,29.196 c 2.097,1.211 3.796,0.351 3.796,-1.921 0,-2.271 -1.7,-5.094 -3.797,-6.305 L 0.003,-8.223 C -2.093,-9.434 -3.794,-8.574 -3.795,-6.303 -3.796,-4.033 -2.097,-1.21 0,0"
       style="fill:#00dfbf;fill-opacity:1;fill-rule:nonzero;stroke:none"
       transform="matrix(1.3333333,0,0,-1.3333333,238.43813,342.10027)"
       clip-path="url(#clipPath87)" />
    <path
       id="path88"
       d="m 0,0 c 0.058,0.033 0.106,0.024 0.147,-0.026 0.043,-0.05 0.064,-0.125 0.064,-0.227 v -5.695 c 0,-0.574 -0.047,-1.118 -0.142,-1.636 -0.092,-0.516 -0.233,-0.996 -0.421,-1.437 -0.187,-0.442 -0.422,-0.834 -0.702,-1.177 -0.282,-0.343 -0.608,-0.621 -0.977,-0.834 -0.375,-0.217 -0.702,-0.315 -0.981,-0.297 -0.279,0.02 -0.512,0.143 -0.698,0.368 -0.188,0.225 -0.328,0.544 -0.419,0.954 -0.091,0.409 -0.137,0.901 -0.137,1.475 v 5.695 c 0,0.102 0.021,0.2 0.063,0.299 0.042,0.099 0.091,0.164 0.148,0.197 l 0.634,0.365 c 0.057,0.034 0.106,0.025 0.148,-0.025 0.042,-0.05 0.063,-0.125 0.063,-0.227 v -5.625 c 0,-0.379 0.028,-0.687 0.086,-0.922 0.056,-0.237 0.137,-0.409 0.241,-0.52 0.104,-0.112 0.23,-0.164 0.375,-0.16 0.146,0.007 0.305,0.06 0.477,0.158 0.172,0.1 0.331,0.231 0.48,0.396 0.149,0.165 0.275,0.361 0.38,0.594 0.104,0.231 0.185,0.498 0.246,0.801 0.06,0.303 0.089,0.645 0.089,1.024 v 5.625 c 0,0.102 0.021,0.2 0.062,0.299 0.042,0.098 0.091,0.164 0.149,0.198 z"
       style="fill:#fafafa;fill-opacity:1;fill-rule:nonzero;stroke:none"
       transform="matrix(1.3333333,0,0,-1.3333333,252.25453,354.98307)"
       clip-path="url(#clipPath89)" />
    <path
       id="path90"
       d="m 0,0 c 0,0.1 -0.018,0.173 -0.055,0.218 -0.036,0.044 -0.1,0.067 -0.191,0.07 C -0.337,0.291 -0.458,0.277 -0.609,0.245 -0.761,0.213 -0.954,0.175 -1.187,0.132 -1.417,0.092 -1.606,0.1 -1.758,0.15 -1.909,0.203 -2.03,0.295 -2.121,0.428 -2.212,0.56 -2.276,0.733 -2.313,0.95 c -0.036,0.215 -0.054,0.461 -0.054,0.737 0,0.279 0.036,0.573 0.109,0.884 0.073,0.31 0.178,0.609 0.317,0.898 0.138,0.288 0.306,0.554 0.504,0.798 0.197,0.243 0.424,0.439 0.679,0.586 C -0.503,5 -0.275,5.082 -0.074,5.094 0.126,5.109 0.296,5.073 0.438,4.987 0.578,4.901 0.687,4.772 0.765,4.6 0.843,4.427 0.888,4.233 0.899,4.018 0.904,3.918 0.884,3.819 0.839,3.72 0.795,3.62 0.744,3.554 0.687,3.521 L 0.085,3.174 C 0.008,3.129 -0.051,3.12 -0.09,3.148 -0.129,3.176 -0.171,3.21 -0.219,3.249 -0.266,3.285 -0.328,3.307 -0.406,3.313 -0.484,3.319 -0.601,3.277 -0.758,3.187 -0.915,3.096 -1.052,2.976 -1.171,2.823 -1.292,2.67 -1.352,2.487 -1.352,2.274 -1.352,2.172 -1.337,2.096 -1.308,2.042 -1.28,1.99 -1.226,1.958 -1.146,1.95 -1.064,1.939 -0.952,1.948 -0.808,1.97 -0.666,1.992 -0.479,2.028 -0.25,2.076 0.213,2.168 0.541,2.082 0.73,1.817 0.92,1.552 1.016,1.14 1.016,0.586 1.016,0.307 0.977,0.015 0.899,-0.294 0.82,-0.604 0.707,-0.905 0.559,-1.199 0.41,-1.493 0.228,-1.765 0.011,-2.015 c -0.216,-0.25 -0.46,-0.453 -0.73,-0.609 -0.277,-0.159 -0.519,-0.241 -0.731,-0.248 -0.21,-0.005 -0.389,0.042 -0.533,0.143 -0.147,0.101 -0.259,0.244 -0.337,0.431 -0.078,0.186 -0.12,0.388 -0.125,0.607 -0.006,0.1 0.015,0.199 0.059,0.298 0.044,0.1 0.094,0.166 0.152,0.2 l 0.602,0.347 c 0.078,0.045 0.136,0.047 0.175,0.005 0.039,-0.044 0.084,-0.091 0.133,-0.146 0.049,-0.055 0.118,-0.089 0.207,-0.103 0.088,-0.014 0.221,0.031 0.398,0.133 0.079,0.045 0.159,0.102 0.242,0.168 0.083,0.066 0.161,0.14 0.231,0.223 0.07,0.082 0.129,0.171 0.176,0.268 C -0.023,-0.202 0,-0.103 0,0"
       style="fill:#fafafa;fill-opacity:1;fill-rule:nonzero;stroke:none"
       transform="matrix(1.3333333,0,0,-1.3333333,257.48307,362.166)"
       clip-path="url(#clipPath91)" />
    <path
       id="path92"
       d="m 0,0 c -0.151,-0.088 -0.28,-0.203 -0.386,-0.342 -0.108,-0.142 -0.197,-0.295 -0.27,-0.461 -0.074,-0.168 -0.129,-0.339 -0.168,-0.514 -0.039,-0.176 -0.064,-0.336 -0.075,-0.48 l 1.766,1.019 C 0.856,-0.646 0.836,-0.512 0.808,-0.374 0.78,-0.238 0.733,-0.126 0.668,-0.038 0.603,0.048 0.516,0.1 0.41,0.117 0.302,0.134 0.166,0.095 0,0 m -1.915,-3.188 c 0,0.518 0.045,1.03 0.133,1.541 0.09,0.508 0.217,0.98 0.384,1.415 0.166,0.434 0.368,0.816 0.605,1.148 C -0.556,1.247 -0.292,1.496 0,1.665 0.291,1.833 0.555,1.892 0.793,1.839 1.029,1.785 1.231,1.646 1.398,1.423 1.564,1.201 1.694,0.899 1.785,0.523 1.875,0.145 1.922,-0.281 1.922,-0.753 V -1.377 C 1.922,-1.48 1.9,-1.58 1.858,-1.677 1.817,-1.775 1.768,-1.841 1.71,-1.875 l -2.609,-1.506 c 0,-0.213 0.025,-0.386 0.075,-0.518 0.049,-0.135 0.116,-0.233 0.199,-0.296 0.083,-0.063 0.179,-0.091 0.289,-0.083 0.109,0.007 0.222,0.045 0.336,0.111 0.166,0.096 0.301,0.203 0.406,0.325 0.104,0.119 0.189,0.245 0.258,0.377 0.057,0.107 0.104,0.185 0.14,0.234 0.036,0.049 0.087,0.09 0.149,0.127 l 0.625,0.361 C 1.635,-2.711 1.686,-2.718 1.73,-2.765 1.774,-2.814 1.794,-2.892 1.788,-2.996 1.783,-3.128 1.743,-3.318 1.667,-3.566 1.592,-3.813 1.479,-4.077 1.327,-4.359 1.177,-4.642 0.99,-4.916 0.769,-5.182 0.548,-5.448 0.291,-5.666 0,-5.833 c -0.292,-0.169 -0.556,-0.231 -0.793,-0.189 -0.237,0.044 -0.439,0.185 -0.605,0.422 -0.167,0.237 -0.294,0.559 -0.384,0.967 -0.088,0.406 -0.133,0.888 -0.133,1.445"
       style="fill:#fafafa;fill-opacity:1;fill-rule:nonzero;stroke:none"
       transform="matrix(1.3333333,0,0,-1.3333333,262.7532,354.28973)"
       clip-path="url(#clipPath93)" />
    <path
       id="path94"
       d="M 0,0 C -0.312,-0.181 -0.537,-0.434 -0.676,-0.758 -0.814,-1.084 -0.882,-1.524 -0.882,-2.079 V -5.69 c 0,-0.102 -0.021,-0.202 -0.063,-0.299 -0.042,-0.099 -0.091,-0.165 -0.149,-0.197 l -0.593,-0.343 c -0.057,-0.033 -0.107,-0.025 -0.148,0.026 -0.042,0.049 -0.063,0.125 -0.063,0.227 v 6.472 c 0,0.101 0.021,0.201 0.063,0.299 0.041,0.098 0.091,0.164 0.148,0.198 l 0.593,0.341 c 0.058,0.034 0.107,0.025 0.149,-0.025 0.042,-0.049 0.063,-0.125 0.063,-0.227 v -0.32 c 0.135,0.301 0.279,0.555 0.433,0.765 0.153,0.209 0.355,0.385 0.606,0.53 L 0.508,1.96 C 0.565,1.992 0.614,1.984 0.657,1.934 0.698,1.885 0.719,1.808 0.719,1.707 V 0.79 C 0.719,0.688 0.698,0.588 0.657,0.49 0.614,0.392 0.565,0.326 0.508,0.293 Z"
       style="fill:#fafafa;fill-opacity:1;fill-rule:nonzero;stroke:none"
       transform="matrix(1.3333333,0,0,-1.3333333,269.50267,350.57947)"
       clip-path="url(#clipPath95)" />
    <path
       id="path96"
       d="M 0,0 C 0.057,0.033 0.106,0.024 0.148,-0.026 0.19,-0.076 0.211,-0.152 0.211,-0.253 V -1.24 C 0.211,-1.341 0.19,-1.442 0.148,-1.54 0.106,-1.638 0.057,-1.703 0,-1.736 l -3.421,-1.976 c -0.058,-0.033 -0.107,-0.024 -0.149,0.026 -0.041,0.049 -0.062,0.126 -0.062,0.227 v 8.973 c 0,0.101 0.021,0.2 0.062,0.298 0.042,0.099 0.091,0.164 0.149,0.197 l 0.632,0.366 c 0.057,0.033 0.107,0.024 0.148,-0.026 0.043,-0.05 0.064,-0.125 0.064,-0.227 v -7.61 z"
       style="fill:#fafafa;fill-opacity:1;fill-rule:nonzero;stroke:none"
       transform="matrix(1.3333333,0,0,-1.3333333,279.44987,349.9284)"
       clip-path="url(#clipPath97)" />
    <path
       id="path98"
       d="m 0,0 c -0.016,0.278 -0.054,0.494 -0.114,0.649 -0.06,0.155 -0.134,0.264 -0.223,0.324 -0.088,0.06 -0.184,0.08 -0.288,0.062 C -0.729,1.017 -0.837,0.976 -0.946,0.913 -1.055,0.85 -1.162,0.767 -1.266,0.665 -1.37,0.563 -1.467,0.431 -1.555,0.269 -1.644,0.106 -1.719,-0.087 -1.778,-0.312 -1.837,-0.535 -1.875,-0.796 -1.891,-1.091 -1.896,-1.17 -1.9,-1.264 -1.902,-1.376 c -0.003,-0.113 -0.005,-0.229 -0.005,-0.35 0,-0.12 0.002,-0.237 0.005,-0.351 0.002,-0.115 0.006,-0.203 0.011,-0.265 0.016,-0.277 0.054,-0.494 0.113,-0.649 0.059,-0.155 0.134,-0.263 0.223,-0.323 0.088,-0.061 0.185,-0.082 0.289,-0.062 0.104,0.018 0.211,0.06 0.32,0.122 0.109,0.063 0.217,0.145 0.321,0.247 0.104,0.102 0.2,0.233 0.288,0.396 0.089,0.162 0.163,0.356 0.223,0.58 0.06,0.225 0.098,0.485 0.114,0.781 0.004,0.066 0.007,0.159 0.007,0.275 v 0.355 0.346 C 0.007,-0.162 0.004,-0.071 0,0 M -0.946,2.578 C -0.66,2.744 -0.4,2.815 -0.168,2.791 0.063,2.768 0.264,2.667 0.433,2.486 0.603,2.306 0.738,2.061 0.838,1.748 0.941,1.437 1,1.072 1.015,0.656 1.02,0.575 1.023,0.471 1.023,0.34 V -0.047 -0.431 C 1.023,-0.555 1.02,-0.661 1.015,-0.747 0.994,-1.185 0.935,-1.618 0.835,-2.045 0.736,-2.473 0.603,-2.873 0.433,-3.243 0.264,-3.613 0.063,-3.945 -0.168,-4.236 -0.4,-4.527 -0.66,-4.755 -0.946,-4.92 c -0.287,-0.165 -0.546,-0.237 -0.778,-0.213 -0.231,0.024 -0.431,0.122 -0.6,0.299 -0.17,0.174 -0.304,0.419 -0.403,0.732 -0.099,0.313 -0.159,0.677 -0.18,1.091 -0.005,0.08 -0.009,0.183 -0.011,0.305 -0.002,0.125 -0.004,0.249 -0.004,0.38 0,0.13 0.002,0.261 0.004,0.391 0.002,0.131 0.006,0.239 0.011,0.326 0.016,0.435 0.075,0.867 0.176,1.297 0.102,0.428 0.237,0.831 0.407,1.207 0.169,0.375 0.369,0.707 0.6,0.999 0.232,0.292 0.491,0.519 0.778,0.684"
       style="fill:#fafafa;fill-opacity:1;fill-rule:nonzero;stroke:none"
       transform="matrix(1.3333333,0,0,-1.3333333,284.804,343.50453)"
       clip-path="url(#clipPath99)" />
    <path
       id="path100"
       d="m 0,0 c -0.016,-0.269 -0.016,-0.528 0,-0.779 0.031,-0.582 0.135,-0.956 0.313,-1.117 0.176,-0.162 0.393,-0.168 0.647,-0.021 0.256,0.147 0.471,0.405 0.645,0.774 0.175,0.369 0.275,0.811 0.301,1.327 0.011,0.144 0.016,0.323 0.016,0.537 0,0.213 -0.005,0.385 -0.016,0.518 C 1.88,1.706 1.78,2.027 1.605,2.205 1.431,2.381 1.216,2.396 0.96,2.249 0.706,2.102 0.489,1.844 0.313,1.478 0.135,1.112 0.031,0.618 0,0 m 0.937,-4.847 c 0.11,0.062 0.221,0.158 0.337,0.284 0.114,0.126 0.218,0.28 0.311,0.465 0.095,0.182 0.171,0.391 0.231,0.625 0.06,0.234 0.09,0.485 0.09,0.754 v 0.514 C 1.864,-2.312 1.81,-2.434 1.742,-2.57 1.674,-2.707 1.592,-2.845 1.496,-2.984 1.399,-3.123 1.287,-3.257 1.161,-3.385 1.033,-3.516 0.887,-3.626 0.727,-3.719 0.466,-3.869 0.23,-3.916 0.02,-3.857 c -0.212,0.058 -0.391,0.196 -0.539,0.411 -0.149,0.215 -0.266,0.494 -0.352,0.839 -0.086,0.344 -0.134,0.726 -0.145,1.145 -0.005,0.137 -0.007,0.296 -0.007,0.482 0,0.185 0.002,0.348 0.007,0.49 0.011,0.432 0.059,0.869 0.145,1.313 0.086,0.443 0.203,0.858 0.352,1.244 0.148,0.387 0.327,0.732 0.539,1.034 C 0.23,3.403 0.466,3.628 0.727,3.779 0.887,3.872 1.033,3.93 1.161,3.946 1.287,3.964 1.399,3.959 1.496,3.933 1.592,3.905 1.674,3.861 1.742,3.803 1.81,3.745 1.864,3.687 1.906,3.627 v 0.32 c 0,0.102 0.02,0.201 0.063,0.3 0.041,0.098 0.09,0.163 0.148,0.196 L 2.71,4.787 C 2.768,4.819 2.818,4.811 2.859,4.761 2.901,4.711 2.922,4.635 2.922,4.534 V -1.98 C 2.922,-3.1 2.746,-4.046 2.395,-4.819 2.043,-5.592 1.557,-6.156 0.937,-6.514 0.671,-6.667 0.425,-6.747 0.199,-6.753 c -0.226,-0.006 -0.423,0.047 -0.59,0.159 -0.166,0.113 -0.299,0.272 -0.398,0.479 -0.099,0.207 -0.154,0.447 -0.164,0.718 -0.006,0.098 0.014,0.197 0.059,0.297 0.043,0.1 0.095,0.166 0.152,0.2 l 0.531,0.306 c 0.073,0.042 0.134,0.034 0.187,-0.024 0.052,-0.057 0.097,-0.112 0.133,-0.167 0.068,-0.118 0.16,-0.194 0.277,-0.228 0.118,-0.035 0.301,0.021 0.551,0.166"
       style="fill:#fafafa;fill-opacity:1;fill-rule:nonzero;stroke:none"
       transform="matrix(1.3333333,0,0,-1.3333333,288.99027,341.40173)"
       clip-path="url(#clipPath101)" />
    <path
       id="path102"
       d="m 0,0 c 0,-0.103 -0.021,-0.203 -0.063,-0.299 -0.041,-0.099 -0.092,-0.165 -0.149,-0.198 l -0.592,-0.342 c -0.057,-0.034 -0.108,-0.024 -0.149,0.026 -0.042,0.048 -0.063,0.124 -0.063,0.227 v 6.471 c 0,0.102 0.021,0.203 0.063,0.299 0.041,0.099 0.092,0.165 0.149,0.198 l 0.592,0.343 C -0.155,6.757 -0.104,6.749 -0.063,6.698 -0.021,6.65 0,6.574 0,6.471 Z M -0.173,9.385 C -0.116,9.419 -0.065,9.41 -0.024,9.361 0.018,9.311 0.039,9.234 0.039,9.133 V 8.05 C 0.039,7.947 0.018,7.848 -0.024,7.75 -0.065,7.651 -0.116,7.586 -0.173,7.552 L -0.843,7.164 C -0.9,7.132 -0.951,7.14 -0.992,7.19 -1.034,7.24 -1.055,7.316 -1.055,7.418 v 1.083 c 0,0.102 0.021,0.202 0.063,0.301 0.041,0.097 0.092,0.163 0.149,0.195 z"
       style="fill:#fafafa;fill-opacity:1;fill-rule:nonzero;stroke:none"
       transform="matrix(1.3333333,0,0,-1.3333333,296.19853,342.0736)"
       clip-path="url(#clipPath103)" />
    <path
       id="path104"
       d="M 0,0 C 0,-0.102 -0.021,-0.202 -0.062,-0.299 -0.104,-0.397 -0.153,-0.463 -0.21,-0.496 l -0.594,-0.343 c -0.057,-0.033 -0.107,-0.024 -0.149,0.026 -0.042,0.049 -0.062,0.126 -0.062,0.227 v 3.527 c 0,0.556 -0.072,0.958 -0.219,1.207 -0.145,0.249 -0.37,0.288 -0.672,0.113 C -2.182,4.102 -2.398,3.809 -2.558,3.384 -2.717,2.96 -2.796,2.469 -2.796,1.914 v -3.528 c 0,-0.102 -0.021,-0.202 -0.062,-0.3 C -2.9,-2.012 -2.95,-2.078 -3.007,-2.11 L -3.6,-2.454 c -0.058,-0.032 -0.108,-0.024 -0.149,0.026 -0.042,0.05 -0.063,0.126 -0.063,0.227 v 6.473 c 0,0.101 0.021,0.202 0.063,0.299 0.041,0.098 0.091,0.164 0.149,0.198 L -3.007,5.11 C -2.95,5.145 -2.9,5.135 -2.858,5.085 -2.817,5.036 -2.796,4.959 -2.796,4.858 v -0.32 c 0.135,0.319 0.294,0.609 0.477,0.872 0.181,0.263 0.398,0.466 0.649,0.611 0.316,0.184 0.583,0.25 0.795,0.196 0.214,-0.052 0.386,-0.189 0.516,-0.41 0.13,-0.221 0.222,-0.514 0.277,-0.874 C -0.027,4.57 0,4.171 0,3.737 Z"
       style="fill:#fafafa;fill-opacity:1;fill-rule:nonzero;stroke:none"
       transform="matrix(1.3333333,0,0,-1.3333333,303.23827,338.00973)"
       clip-path="url(#clipPath105)" />
    <path
       id="path106"
       d="m 0,0 -9.714,-5.608 1.505,13.624 c -1.161,0.614 -1.901,2.126 -1.901,4.296 0,3.869 2.351,8.364 5.254,10.039 2.901,1.675 5.253,-0.103 5.253,-3.972 0,-2.171 -0.741,-4.537 -1.902,-6.493 z"
       style="fill:#375a64;fill-opacity:1;fill-rule:nonzero;stroke:none"
       transform="matrix(1.3333333,0,0,-1.3333333,370.5,299.20307)"
       clip-path="url(#clipPath107)" />
    <path
       id="path108"
       d="M 0,0 -8.549,4.936 -9.714,-5.608 Z"
       style="fill:#2b454e;fill-opacity:1;fill-rule:nonzero;stroke:none"
       transform="matrix(1.3333333,0,0,-1.3333333,370.5,299.20307)"
       clip-path="url(#clipPath109)" />
    <path
       id="path110"
       d="m 0,0 c -1.898,-1.096 -3.557,-3.4 -4.48,-5.945 l 7.832,-4.522 v 0.002 c 1.162,1.956 1.902,4.322 1.902,6.493 C 5.254,-0.104 2.901,1.675 0,0"
       style="fill:#2b454e;fill-opacity:1;fill-rule:nonzero;stroke:none"
       transform="matrix(1.3333333,0,0,-1.3333333,364.0248,269.40173)"
       clip-path="url(#clipPath111)" />
    <path
       id="path112"
       d="m 0,0 c -3.322,1.923 -7.913,1.65 -12.985,-1.279 -10.14,-5.854 -18.358,-20.092 -18.357,-31.799 10e-4,-5.875 2.072,-9.994 5.416,-11.902 0.871,-0.497 5.593,-3.244 6.469,-3.751 3.322,-1.92 7.91,-1.646 12.98,1.281 10.138,5.854 18.356,20.091 18.356,31.8 0,5.851 -2.053,9.96 -5.373,11.878"
       style="fill:#00dfbf;fill-opacity:1;fill-rule:nonzero;stroke:none"
       transform="matrix(1.3333333,0,0,-1.3333333,301.06187,208.9388)"
       clip-path="url(#clipPath113)" />
    <path
       id="path114"
       d="m 0,0 c -10.138,-5.857 -18.357,-20.092 -18.356,-31.799 0.001,-11.708 8.221,-16.454 18.359,-10.6 10.138,5.854 18.366,20.091 18.356,31.799 C 18.349,1.107 10.129,5.853 0,0"
       style="fill:#00dfbf;fill-opacity:1;fill-rule:nonzero;stroke:none"
       transform="matrix(1.3333333,0,0,-1.3333333,292.42253,215.6732)"
       clip-path="url(#clipPath115)" />
    <path
       id="path116"
       d="m 0,0 v -1.336 c -2.614,-4.462 -6.192,-8.347 -10.135,-10.618 -3.951,-2.278 -7.522,-2.527 -10.136,-1.074 v 2.768 c 0,5.345 3.629,11.633 8.259,14.313 l 2.665,1.533 c 2.366,1.366 4.659,1.541 6.463,0.497 C -1.044,5.024 0,2.811 0,0"
       style="fill:#00dfbf;fill-opacity:1;fill-rule:nonzero;stroke:none"
       transform="matrix(1.3333333,0,0,-1.3333333,305.93813,250.308)"
       clip-path="url(#clipPath117)" />
    <g
       opacity="0.399994"
       id="g119"
       clip-path="url(#clipPath120)">
      <path
         d="m 0,0 6.507,-3.771 c -3.324,1.923 -7.914,1.652 -12.985,-1.278 -6.638,-3.838 -12.454,-11.267 -15.679,-19.226 l -6.506,3.774 c 3.224,7.959 9.037,15.389 15.679,19.223 C -7.91,1.649 -3.321,1.924 0,0"
         style="fill:#ffffff;fill-opacity:1;fill-rule:nonzero;stroke:none"
         transform="matrix(1.3333333,0,0,-1.3333333,301.0612,208.93947)"
         clip-path="url(#clipPath118)"
         id="path119" />
    </g>
    <g
       opacity="0.199997"
       id="g122"
       clip-path="url(#clipPath123)">
      <path
         d="m 0,0 c -1.146,0.662 -5.422,3.151 -6.226,3.61 -3.343,1.907 -5.415,6.026 -5.415,11.9 l 6.506,-3.775 C -5.131,6.029 -3.176,1.975 0,0"
         style="fill:#000000;fill-opacity:1;fill-rule:nonzero;stroke:none"
         transform="matrix(1.3333333,0,0,-1.3333333,274.7936,273.72333)"
         clip-path="url(#clipPath121)"
         id="path122" />
    </g>
    <g
       opacity="0.100006"
       id="g125"
       clip-path="url(#clipPath126)">
      <path
         d="M 0,0 6.506,-3.774 C 4.806,-7.97 3.828,-12.311 3.828,-16.349 v -0.003 l -6.507,3.775 c 0,4.04 0.981,8.385 2.679,12.577"
         style="fill:#000000;fill-opacity:1;fill-rule:nonzero;stroke:none"
         transform="matrix(1.3333333,0,0,-1.3333333,262.84373,236.27413)"
         clip-path="url(#clipPath124)"
         id="path125" />
    </g>
    <path
       id="path127"
       d="m 0,0 c -0.635,0 -1.229,0.153 -1.766,0.461 -1.237,0.714 -1.918,2.13 -1.918,3.983 0,3.392 2.303,7.381 5.244,9.079 v 0.003 c 1.598,0.927 3.161,1.042 4.406,0.328 C 7.204,13.139 7.885,11.724 7.885,9.871 7.885,6.478 5.582,2.489 2.644,0.791 1.732,0.266 0.833,0 0,0"
       style="fill:#ffffff;fill-opacity:1;fill-rule:nonzero;stroke:none"
       transform="matrix(1.3333333,0,0,-1.3333333,289.34707,242.028)"
       clip-path="url(#clipPath128)" />
    <path
       id="path129"
       d="M 0,0 C -1.804,1.044 -4.097,0.869 -6.462,-0.497 L -9.128,-2.03 c -4.63,-2.68 -8.259,-8.967 -8.259,-14.313 v -2.767 c 2.615,-1.453 6.185,-1.205 10.136,1.073 3.943,2.271 7.522,6.156 10.135,10.618 v 1.336 C 2.884,-3.271 1.84,-1.059 0,0"
       style="fill:#ffffff;fill-opacity:1;fill-rule:nonzero;stroke:none"
       transform="matrix(1.3333333,0,0,-1.3333333,302.0924,242.19787)"
       clip-path="url(#clipPath130)" />
  </g>
  <g
     id="layer-MC4">
    <path
       id="path131"
       d="m 0,0 c 0,0 1.328,11.679 7.138,20.743 5.809,9.064 13.792,14.721 21.24,15.311 7.447,0.589 13.463,-6.264 5.494,-10.97 C 25.902,20.378 11.744,15.577 5.229,-2.024 Z"
       style="fill:#00dfbf;fill-opacity:1;fill-rule:nonzero;stroke:none"
       transform="matrix(1.3333333,0,0,-1.3333333,576.20573,472.86387)"
       clip-path="url(#clipPath132)" />
    <g
       opacity="0.100006"
       id="g134"
       clip-path="url(#clipPath135)">
      <path
         d="m 0,0 c 0,0 1.328,11.679 7.138,20.743 5.809,9.064 13.792,14.721 21.24,15.311 7.447,0.589 13.463,-6.264 5.494,-10.97 C 25.902,20.378 11.744,15.577 5.229,-2.024 Z"
         style="fill:#000000;fill-opacity:1;fill-rule:nonzero;stroke:none"
         transform="matrix(1.3333333,0,0,-1.3333333,576.20573,472.86387)"
         clip-path="url(#clipPath133)"
         id="path134" />
    </g>
    <path
       id="path136"
       d="m 0,0 c -0.026,0.005 -0.053,0.012 -0.078,0.023 -0.204,0.082 -0.303,0.314 -0.219,0.518 7.859,19.357 22.822,27.44 29.637,29.009 0.213,0.051 0.427,-0.085 0.477,-0.299 0.049,-0.214 -0.085,-0.427 -0.298,-0.477 C 22.844,27.237 8.176,19.295 0.439,0.242 0.367,0.063 0.182,-0.033 0,0"
       style="fill:#ffffff;fill-opacity:1;fill-rule:nonzero;stroke:none"
       transform="matrix(1.3333333,0,0,-1.3333333,579.1172,468.8196)"
       clip-path="url(#clipPath137)" />
    <path
       id="path138"
       d="m 0,0 c -0.675,-1.52 -2.334,-2.312 -3.879,-2.935 -1.536,-0.616 -3.22,-1.289 -4.054,-2.727 -1.681,-2.903 1.079,-6.986 -0.725,-9.814 -0.758,-1.185 -2.166,-1.81 -3.551,-2.058 -1.151,-0.215 -2.322,-0.214 -3.489,-0.312 -0.562,0.012 -1.117,0.053 -1.659,0.129 -1.601,0.233 -3.338,0.308 -4.805,-0.512 -2.308,-1.297 -3.017,-4.211 -4.418,-6.458 -1.681,-2.69 -4.651,-4.452 -7.774,-4.876 -1.038,-0.138 -2.966,-0.324 -4.023,0.265 -0.083,0.046 -0.15,0.089 -0.218,0.139 -0.007,10e-4 -0.013,0.01 -0.019,0.019 -0.145,0.163 -0.327,0.372 -0.406,0.485 -0.019,0.019 -0.03,0.044 -0.041,0.069 -0.409,1.505 0.259,3.072 0.286,4.628 0.003,0.098 0.004,0.189 -0.002,0.282 -0.065,1.807 -0.116,3.605 -0.158,5.409 -0.084,3.318 -0.122,6.643 -0.099,9.965 0.023,2.157 -0.237,4.518 0.676,6.551 1.011,2.234 3.524,2.284 4.474,4.477 0.38,0.873 0.582,1.81 0.95,2.694 1.099,2.592 3.762,4.455 6.58,4.593 4.387,0.223 8.325,-3.329 12.707,-3.006 1.134,0.089 2.241,0.434 3.359,0.64 C -6.734,8.312 -2.627,7.3 -0.629,4.293 0.207,3.037 0.61,1.38 0,0"
       style="fill:#00dfbf;fill-opacity:1;fill-rule:nonzero;stroke:none"
       transform="matrix(1.3333333,0,0,-1.3333333,632.16533,469.12507)"
       clip-path="url(#clipPath139)" />
    <path
       id="path140"
       d="m 0,0 c -0.01,0.002 -0.02,0.004 -0.03,0.007 -0.199,0.053 -0.319,0.258 -0.265,0.458 6.063,22.744 30.026,26.032 35.633,25.626 0.203,-0.016 0.36,-0.194 0.347,-0.4 C 35.67,25.485 35.49,25.33 35.284,25.345 29.8,25.741 6.36,22.525 0.428,0.271 0.378,0.082 0.189,-0.035 0,0"
       style="fill:#ffffff;fill-opacity:1;fill-rule:nonzero;stroke:none"
       transform="matrix(1.3333333,0,0,-1.3333333,579.60547,498.02533)"
       clip-path="url(#clipPath141)" />
    <path
       id="path142"
       d="m 0,0 c -0.073,0.014 -0.143,0.048 -0.198,0.105 -0.06,0.061 -6.171,6.086 -16.308,4.594 -0.204,-0.028 -0.395,0.111 -0.426,0.316 -0.03,0.204 0.113,0.395 0.317,0.424 C -6.088,6.987 0.271,0.695 0.334,0.631 0.479,0.484 0.478,0.248 0.331,0.102 0.241,0.013 0.116,-0.021 0,0"
       style="fill:#ffffff;fill-opacity:1;fill-rule:nonzero;stroke:none"
       transform="matrix(1.3333333,0,0,-1.3333333,615.1068,482.6588)"
       clip-path="url(#clipPath143)" />
  </g>
  <g
     id="layer-MC5">
    <path
       id="path144"
       d="m 0,0 3.183,-1.224 v 7.011 c 0,5.558 4.432,6.89 9.246,4.111 4.812,-2.778 8.715,-9.537 8.715,-15.094 v -1.018 c 1.091,0.435 2.502,0.266 4.043,-0.624 3.464,-2 6.272,-6.863 6.272,-10.862 v -0.463 l 4.437,-2.562 c 2.282,-1.317 4.13,-4.519 4.13,-7.153 0,-2.634 -1.848,-3.701 -4.13,-2.384 L 0,-9.538 c -2.281,1.317 -4.13,4.52 -4.13,7.154 C -4.13,0.25 -2.281,1.317 0,0"
       style="fill:#e7e7e7;fill-opacity:1;fill-rule:nonzero;stroke:none"
       transform="matrix(1.3333333,0,0,-1.3333333,502.82027,106.67453)"
       clip-path="url(#clipPath145)" />
    <path
       id="path146"
       d="m 0,0 5.77,-3.331 c -0.03,0.258 -0.049,0.514 -0.049,0.764 v 1.671 c 0,2.975 2.088,4.18 4.664,2.693 1.043,-0.602 2.003,-1.557 2.779,-2.673 0.422,3.74 3.357,5.133 6.921,3.075 3.853,-2.224 6.977,-7.636 6.977,-12.085 v -2.501 c 0,-1.152 -0.212,-2.123 -0.59,-2.896 l 4.792,-2.767 c 1.428,-0.825 2.587,-2.831 2.587,-4.481 0,-1.65 -1.159,-2.319 -2.587,-1.493 L 0,-5.975 c -1.429,0.825 -2.587,2.831 -2.587,4.481 0,1.65 1.158,2.319 2.587,1.494"
       style="fill:#e7e7e7;fill-opacity:1;fill-rule:nonzero;stroke:none"
       transform="matrix(1.3333333,0,0,-1.3333333,559.60813,99.2852)"
       clip-path="url(#clipPath147)" />
  </g>
  <g
     id="layer-MC6">
    <path
       id="path148"
       d="m 0,0 c -4.2,-7.101 -8.241,-13.27 -11.078,-16.227 -5.388,-2.506 -18.046,-6.357 -22.998,-7.002 -0.878,-0.115 -1.761,0.109 -2.486,0.585 -1.947,1.276 -3.453,1.483 -5.505,2.193 -1.609,0.557 -2.289,1.324 -2.591,1.032 -0.388,-0.375 -0.811,-1.442 0.168,-2.546 0.492,-0.556 1.388,-1.162 2.544,-1.904 0,0 -3.542,-0.944 -6.705,-0.114 -4.287,1.125 -6.311,-0.936 -3.412,-5.591 1.039,-1.667 5.125,-4.336 13.41,-3.615 2.386,0.207 5.831,0.407 8.801,1.041 7.946,1.695 16.778,3.338 22.208,4.961 1.371,0.409 3.818,1.994 5.275,3.655 C 6.765,-13.121 9.789,-5.703 13.794,1.04 L 13.447,12.057 C 6.976,12.257 3.514,5.942 0,0"
       style="fill:#ffaaa8;fill-opacity:1;fill-rule:nonzero;stroke:none"
       transform="matrix(1.3333333,0,0,-1.3333333,529.82427,301.64253)"
       clip-path="url(#clipPath149)" />
    <path
       id="path150"
       d="m 0,0 c 0,0 -5.652,1.203 -9.901,-4.234 -4.447,-5.688 -12.307,-19.352 -12.307,-19.352 0,0 2.579,-6.851 9.518,-7.977 l 11.147,15.058 c 0,0 5.279,10.423 1.543,16.505"
       style="fill:#375a64;fill-opacity:1;fill-rule:nonzero;stroke:none"
       transform="matrix(1.3333333,0,0,-1.3333333,549.2448,285.30013)"
       clip-path="url(#clipPath151)" />
    <path
       id="path152"
       d="m 436.036,119.506 h -7.267 v 12.958 h 7.267 z"
       style="fill:#ffaaa8;fill-opacity:1;fill-rule:nonzero;stroke:none"
       transform="matrix(1.3333333,0,0,-1.3333333,0,666.66667)"
       clip-path="url(#clipPath153)" />
    <path
       id="path154"
       d="M 0,0 -7.263,-0.26 -7.627,13.453 0,13.713 Z"
       style="fill:#ffaaa8;fill-opacity:1;fill-rule:nonzero;stroke:none"
       transform="matrix(1.3333333,0,0,-1.3333333,547.7852,489.12627)"
       clip-path="url(#clipPath155)" />
    <path
       id="path156"
       d="m 0,0 c 0,-7.228 -1.064,-65.397 -1.064,-65.397 0.169,-2.081 2.042,-5.915 1.636,-13.903 -0.551,-10.852 -1.284,-39.368 -1.284,-39.368 0,0 -3.528,-2.147 -8.092,-0.166 0,0 -5.891,39.96 -7.194,50.714 -1.137,9.385 -4.047,40.52 -4.047,40.52 l -3.939,-36.742 c 0,0 1.339,-5.597 0.9,-12.029 -0.34,-4.974 -2.677,-30.879 -2.677,-30.879 0,0 -3.421,-2.417 -8.39,-0.668 0,0 -4.134,39.013 -4.219,43.577 -0.096,5.203 2.417,64.419 2.417,64.419 z"
       style="fill:#2b454e;fill-opacity:1;fill-rule:nonzero;stroke:none"
       transform="matrix(1.3333333,0,0,-1.3333333,582.74613,340.46293)"
       clip-path="url(#clipPath157)" />
    <path
       id="path158"
       d="m 0,0 v 1.083 c -0.696,-0.316 -2.312,-6.736 -5.195,-9.475 -2.292,-2.178 -5.419,-4.693 -6.215,-7.121 -0.827,-2.526 4.355,-3.919 6.497,-3.524 2.488,0.459 6.801,2.284 7.884,3.975 1.083,1.692 1.59,4.188 2.469,5.428 0.88,1.239 2.909,2.624 3.384,4.059 0.261,0.788 -0.049,2.514 -0.416,3.973 -0.337,1.339 -0.702,2.81 -1.141,2.685 -0.001,-0.164 0,-0.825 0,-0.825 C 6.739,-0.351 5.279,-0.956 3.634,-1.022 2.57,-1.064 -0.009,-0.845 0,0"
       style="fill:#1a2e35;fill-opacity:1;fill-rule:nonzero;stroke:none"
       transform="matrix(1.3333333,0,0,-1.3333333,571.69267,502.34373)"
       clip-path="url(#clipPath159)" />
    <path
       id="path160"
       d="m 0,0 c -0.378,-0.014 -0.685,-0.568 -1.518,-1.507 -1.005,-1.134 -2.65,-2.357 -4.274,-3.203 -2.722,-1.419 -8.013,-3.602 -10.406,-4.725 -1.496,-0.702 -1.426,-2.584 0.12,-3.655 1.546,-1.071 5.279,-1.843 9.762,-0.799 2.442,0.569 5.621,2.918 7.632,2.792 2.013,-0.127 5.778,-0.097 7.263,0.97 1.485,1.065 0.891,3.343 0.471,5.299 -0.458,2.136 -1.031,5.466 -1.71,5.32 V -0.244 C 6.467,-1.622 1.958,-2.183 0.038,-1.168 Z"
       style="fill:#1a2e35;fill-opacity:1;fill-rule:nonzero;stroke:none"
       transform="matrix(1.3333333,0,0,-1.3333333,537.99867,486.36067)"
       clip-path="url(#clipPath161)" />
    <path
       id="path162"
       d="m 0,0 c 0,0 -5.809,1.704 -10.12,6.043 0,0 1.953,-3.808 7.76,-7.352 l -1.243,-32.81 z"
       style="fill:#1a2e35;fill-opacity:1;fill-rule:nonzero;stroke:none"
       transform="matrix(1.3333333,0,0,-1.3333333,556.01947,377.26307)"
       clip-path="url(#clipPath163)" />
    <path
       id="path164"
       d="M 0,0 C 0,0 5.976,-1.383 5.571,-12.217 L 4.315,-29.476 4.35,-55.375 c -5.344,-6.055 -29.037,-5.612 -37.148,0.485 0,0 0.919,30.65 1.467,42.444 0.39,8.384 2.318,12.606 10.56,13.529 l 10.133,-0.445 z"
       style="fill:#00dfbf;fill-opacity:1;fill-rule:nonzero;stroke:none"
       transform="matrix(1.3333333,0,0,-1.3333333,577.32027,286.7448)"
       clip-path="url(#clipPath165)" />
    <path
       id="path166"
       d="m 0,0 c 0,-6.224 -4.845,-11.269 -10.819,-11.269 -5.976,0 -9.513,5.184 -10.821,11.269 -2.391,11.129 4.845,11.269 10.821,11.269 C -4.845,11.269 0,6.224 0,0"
       style="fill:#1a2e35;fill-opacity:1;fill-rule:nonzero;stroke:none"
       transform="matrix(1.3333333,0,0,-1.3333333,567.14067,256.7136)"
       clip-path="url(#clipPath167)" />
    <path
       id="path168"
       d="m 0,0 c 0,0 -1.659,-8.12 -2.324,-9.454 -0.666,-1.335 -2.041,-1.713 -2.041,-1.713 l 0.116,5.712 z"
       style="fill:#1a2e35;fill-opacity:1;fill-rule:nonzero;stroke:none"
       transform="matrix(1.3333333,0,0,-1.3333333,574.5,262.79227)"
       clip-path="url(#clipPath169)" />
    <path
       id="path170"
       d="M 0,0 C 0,0 1.189,0.298 2.454,-1.677 3.537,-3.37 3.783,-7.173 2.082,-11.633 l -3.126,-0.374 z"
       style="fill:#1a2e35;fill-opacity:1;fill-rule:nonzero;stroke:none"
       transform="matrix(1.3333333,0,0,-1.3333333,571.724,247.2812)"
       clip-path="url(#clipPath171)" />
    <path
       id="path172"
       d="M 0,0 3.832,-0.071 C 3.926,1.028 3.144,1.936 2.086,1.955 1.027,1.975 0.094,1.1 0,0"
       style="fill:#1a2e35;fill-opacity:1;fill-rule:nonzero;stroke:none"
       transform="matrix(1.3333333,0,0,-1.3333333,573.25787,249.47333)"
       clip-path="url(#clipPath173)" />
    <path
       id="path174"
       d="M 0,0 2.84,2.731 C 2.139,3.544 0.935,3.591 0.15,2.837 -0.634,2.083 -0.701,0.812 0,0"
       style="fill:#1a2e35;fill-opacity:1;fill-rule:nonzero;stroke:none"
       transform="matrix(1.3333333,0,0,-1.3333333,573.8828,248.2624)"
       clip-path="url(#clipPath175)" />
    <path
       id="path176"
       d="M 0,0 C 0.627,-0.39 1.521,0.864 2.295,1.707 3.067,2.549 5.495,3.344 6.754,0.582 8.036,-2.233 5.867,-4.911 4.063,-5.807 0.839,-7.41 -0.186,-5.079 -0.186,-5.079 l -0.261,-12.862 c -4.545,-7.031 -14.84,-6.777 -11.139,0.339 l 0.01,3.915 c 0,0 -3.102,-0.49 -4.615,-0.247 -2.518,0.406 -4.102,2.475 -4.866,5.313 -1.226,4.559 -1.692,8.241 -0.652,17.207 1.142,9.829 12.116,9.931 18.043,6.045 C 2.261,10.746 0,0 0,0"
       style="fill:#ffaaa8;fill-opacity:1;fill-rule:nonzero;stroke:none"
       transform="matrix(1.3333333,0,0,-1.3333333,569.082,263.2936)"
       clip-path="url(#clipPath177)" />
    <path
       id="path178"
       d="m 0,0 c 2.622,0.262 5.214,0.795 7.842,0.989 0.568,0.042 1.149,0.067 1.7,-0.082 2.013,-0.544 1.753,-2.884 2.072,-4.519 0.551,-2.815 1.008,-7.587 2.067,-7.608 0.315,-0.007 1.514,2.065 2.295,2.805 0.504,0.479 0.59,1.512 0.7,2.15 0.199,1.167 0.307,2.35 0.397,3.529 0.075,0.998 0.176,2.014 0.172,3.016 -0.005,1.124 0.017,2.268 -0.263,3.366 -0.253,0.997 -0.72,1.743 -1.402,2.52 -0.065,0.075 -0.132,0.149 -0.2,0.222 -1.293,1.394 -2.942,2.439 -4.693,3.161 -2.513,1.036 -5.237,1.45 -7.94,1.726 -2.704,0.277 -5.43,0.428 -8.093,0.975 -0.155,0.032 -0.32,0.064 -0.468,0.008 -0.232,-0.089 -0.333,-0.358 -0.379,-0.602 -0.236,-1.234 0.32,-2.583 1.356,-3.294 -1.811,-0.144 -3.892,0.8 -5.639,1.272 -0.294,0.08 -0.627,0.155 -0.888,-0.003 -0.18,-0.108 -0.286,-0.308 -0.35,-0.508 -0.148,-0.465 -0.115,-0.966 -0.05,-1.449 0.196,-1.427 0.682,-2.836 1.562,-3.977 C -8.937,2.056 -6.853,0.576 -4.798,0.165 -3.174,-0.161 -1.658,-0.166 0,0"
       style="fill:#1a2e35;fill-opacity:1;fill-rule:nonzero;stroke:none"
       transform="matrix(1.3333333,0,0,-1.3333333,550.8412,249.79813)"
       clip-path="url(#clipPath179)" />
    <path
       id="path180"
       d="m 0,0 c 0,0 5.62,1.179 7.585,2.267 1.315,0.728 2.398,1.99 2.717,2.799 0,0 -0.368,-1.737 -1.543,-3.301 C 7.321,-0.148 0,-1.558 0,-1.558 Z"
       style="fill:#ff9090;fill-opacity:1;fill-rule:nonzero;stroke:none"
       transform="matrix(1.3333333,0,0,-1.3333333,553.6472,281.54293)"
       clip-path="url(#clipPath181)" />
    <path
       id="path182"
       d="m 0,0 c 0,-0.673 0.505,-1.217 1.126,-1.215 0.623,0.001 1.127,0.548 1.127,1.221 0,0.674 -0.504,1.218 -1.127,1.216 C 0.505,1.22 0,0.673 0,0"
       style="fill:#1a2e35;fill-opacity:1;fill-rule:nonzero;stroke:none"
       transform="matrix(1.3333333,0,0,-1.3333333,555.44787,261.3424)"
       clip-path="url(#clipPath183)" />
    <path
       id="path184"
       d="M 0,0 2.41,-1.385 C 2.765,-0.664 2.514,0.23 1.849,0.613 1.183,0.996 0.355,0.721 0,0"
       style="fill:#1a2e35;fill-opacity:1;fill-rule:nonzero;stroke:none"
       transform="matrix(1.3333333,0,0,-1.3333333,557.85933,254.8672)"
       clip-path="url(#clipPath185)" />
    <path
       id="path186"
       d="m 0,0 -2.571,-1.005 c 0.255,-0.767 1.037,-1.164 1.747,-0.887 C -0.114,-1.615 0.255,-0.768 0,0"
       style="fill:#ff9090;fill-opacity:1;fill-rule:nonzero;stroke:none"
       transform="matrix(1.3333333,0,0,-1.3333333,554.32547,272.1472)"
       clip-path="url(#clipPath187)" />
    <path
       id="path188"
       d="M 0,0 2.197,1.763 C 1.749,2.418 0.894,2.554 0.287,2.068 -0.319,1.581 -0.448,0.655 0,0"
       style="fill:#1a2e35;fill-opacity:1;fill-rule:nonzero;stroke:none"
       transform="matrix(1.3333333,0,0,-1.3333333,541.67187,256.24347)"
       clip-path="url(#clipPath189)" />
    <path
       id="path190"
       d="m 0,0 c 0,-0.673 0.505,-1.217 1.127,-1.215 0.622,0.001 1.126,0.548 1.126,1.221 0,0.674 -0.504,1.218 -1.126,1.216 C 0.505,1.22 0,0.673 0,0"
       style="fill:#1a2e35;fill-opacity:1;fill-rule:nonzero;stroke:none"
       transform="matrix(1.3333333,0,0,-1.3333333,542.95827,260.8972)"
       clip-path="url(#clipPath191)" />
    <path
       id="path192"
       d="m 0,0 -0.131,-7.114 -4.037,0.927 z"
       style="fill:#ff9090;fill-opacity:1;fill-rule:nonzero;stroke:none"
       transform="matrix(1.3333333,0,0,-1.3333333,550.9948,259.64133)"
       clip-path="url(#clipPath193)" />
    <path
       id="path194"
       d="M 0,0 6.265,3.616 8.747,6.623 2.483,3.006 Z"
       style="fill:#00dfbf;fill-opacity:1;fill-rule:nonzero;stroke:none"
       transform="matrix(1.3333333,0,0,-1.3333333,423.08467,339.03453)"
       clip-path="url(#clipPath195)" />
    <g
       opacity="0.399994"
       id="g197"
       clip-path="url(#clipPath198)">
      <path
         d="M 0,0 6.265,3.616 8.747,6.623 2.483,3.006 Z"
         style="fill:#000000;fill-opacity:1;fill-rule:nonzero;stroke:none"
         transform="matrix(1.3333333,0,0,-1.3333333,423.08467,339.03453)"
         clip-path="url(#clipPath196)"
         id="path197" />
    </g>
    <path
       id="path199"
       d="M 0,0 6.264,3.616 11.499,8.25 5.235,4.634 Z"
       style="fill:#00dfbf;fill-opacity:1;fill-rule:nonzero;stroke:none"
       transform="matrix(1.3333333,0,0,-1.3333333,445.81507,352.1576)"
       clip-path="url(#clipPath200)" />
    <g
       opacity="0.399994"
       id="g202"
       clip-path="url(#clipPath203)">
      <path
         d="M 0,0 6.264,3.616 11.499,8.25 5.235,4.634 Z"
         style="fill:#000000;fill-opacity:1;fill-rule:nonzero;stroke:none"
         transform="matrix(1.3333333,0,0,-1.3333333,445.81507,352.1576)"
         clip-path="url(#clipPath201)"
         id="path202" />
    </g>
    <path
       id="path204"
       d="m 0,0 c -2.107,14.352 -9.817,28.549 -19.009,33.854 -4.41,2.549 -8.491,2.642 -11.761,0.729 -0.956,-0.555 -4.502,-2.601 -5.9,-3.402 -0.113,-0.062 -0.226,-0.124 -0.329,-0.196 -0.257,-0.144 -0.515,-0.308 -0.761,-0.483 -0.473,-0.329 -0.926,-0.699 -1.357,-1.121 -0.062,-0.051 -0.123,-0.123 -0.196,-0.185 -0.184,-0.185 -0.37,-0.39 -0.544,-0.596 -0.216,-0.246 -0.432,-0.504 -0.627,-0.771 -0.412,-0.545 -0.802,-1.131 -1.152,-1.768 -0.175,-0.309 -0.349,-0.638 -0.513,-0.977 l -51.516,29.742 -6.261,-3.609 v -3.988 l 0.534,-0.309 0.495,-0.288 v -0.843 l -1.029,-0.596 V 42.87 l 7.567,-16.017 7.484,-4.329 2.487,3.013 6.601,-3.948 3.793,-6.498 4.174,-2.405 5.232,4.636 6.426,-3.711 2.159,-8.903 10.764,-6.209 c 0.545,-2.282 1.233,-4.513 2.035,-6.693 0.072,-0.226 0.154,-0.452 0.247,-0.699 3.577,-9.406 9.272,-17.456 15.687,-21.167 0.824,-0.473 1.625,-0.864 2.416,-1.162 0.453,-0.185 0.906,-0.329 1.347,-0.452 0.402,-0.114 0.802,-0.206 1.203,-0.268 1.326,-0.236 2.612,-0.226 3.815,0.01 0.174,0.042 0.349,0.083 0.523,0.124 0.247,0.051 0.494,0.123 0.731,0.216 0.184,0.072 0.37,0.144 0.554,0.216 0.196,0.072 0.391,0.164 0.577,0.267 0.184,0.082 0.359,0.175 0.534,0.277 0.092,0.052 0.185,0.103 0.267,0.155 0.041,0.01 0.082,0.041 0.123,0.072 1.43,0.822 4.955,2.858 5.912,3.402 4.759,2.756 7.844,9.736 7.844,19.605 C 0.576,-5.089 0.381,-2.54 0,0 m -14.563,0.189 c 1.374,-1.747 2.375,-4.313 2.589,-6.817 -1.373,1.748 -2.374,4.314 -2.589,6.817"
       style="fill:#00dfbf;fill-opacity:1;fill-rule:nonzero;stroke:none"
       transform="matrix(1.3333333,0,0,-1.3333333,536.24733,369.07227)"
       clip-path="url(#clipPath205)" />
    <path
       id="path206"
       d="m 0,0 c -2.107,14.341 -9.817,28.539 -19.009,33.844 -4.256,2.457 -8.193,2.642 -11.4,0.946 -0.113,-0.062 -0.227,-0.124 -0.329,-0.196 -0.257,-0.144 -0.515,-0.308 -0.761,-0.483 -0.474,-0.329 -0.926,-0.699 -1.357,-1.121 -0.062,-0.051 -0.123,-0.123 -0.196,-0.185 -0.184,-0.185 -0.37,-0.39 -0.545,-0.596 -0.216,-0.247 -0.431,-0.504 -0.627,-0.771 -0.411,-0.545 -0.801,-1.131 -1.151,-1.768 -0.175,-0.309 -0.35,-0.638 -0.514,-0.977 -0.853,-1.748 -1.532,-3.783 -1.984,-6.086 l -55.792,32.219 v -3.989 l 0.534,-0.308 0.494,-0.288 v -0.843 l -1.028,-0.596 v -2.323 l 7.566,-16.018 7.485,-4.328 2.487,3.013 6.601,-3.948 3.793,-6.498 4.173,-2.405 5.233,4.636 6.426,-3.711 2.159,-8.903 10.763,-6.209 c 0.545,-2.282 1.234,-4.513 2.036,-6.693 0.072,-0.226 0.154,-0.452 0.247,-0.699 3.577,-9.406 9.272,-17.456 15.687,-21.167 0.823,-0.473 1.625,-0.864 2.416,-1.162 0.452,-0.185 0.905,-0.329 1.347,-0.452 0.401,-0.114 0.802,-0.206 1.203,-0.268 1.326,-0.236 2.611,-0.226 3.814,0.01 0.174,0.042 0.35,0.083 0.524,0.124 0.247,0.051 0.494,0.123 0.73,0.216 0.185,0.072 0.371,0.144 0.555,0.215 0.195,0.073 0.391,0.165 0.576,0.268 0.185,0.082 0.36,0.175 0.534,0.277 0.093,0.052 0.186,0.103 0.268,0.155 0.041,0.01 0.082,0.041 0.123,0.072 4.565,2.878 7.495,9.756 7.495,19.389 C 0.576,-5.099 0.37,-2.549 0,0 m -10.14,-8.308 c -2.47,1.427 -4.474,5.668 -4.474,9.473 0,3.805 2.004,5.733 4.474,4.306 2.472,-1.427 4.476,-5.668 4.476,-9.473 0,-3.805 -2.004,-5.733 -4.476,-4.306"
       style="fill:#00dfbf;fill-opacity:1;fill-rule:nonzero;stroke:none"
       transform="matrix(1.3333333,0,0,-1.3333333,527.89973,373.88413)"
       clip-path="url(#clipPath207)" />
    <g
       opacity="0.399994"
       id="g209"
       clip-path="url(#clipPath210)">
      <path
         d="m 0,0 c 0,-3.804 -2.005,-5.736 -4.473,-4.308 -2.477,1.43 -4.482,5.665 -4.482,9.469 0,3.804 2.005,5.736 4.482,4.307 0.659,-0.38 1.285,-0.956 1.83,-1.676 C -2.427,5.294 -1.419,2.725 -0.052,0.977 -0.011,0.648 0,0.319 0,0"
         style="fill:#000000;fill-opacity:1;fill-rule:nonzero;stroke:none"
         transform="matrix(1.3333333,0,0,-1.3333333,520.3476,379.21613)"
         clip-path="url(#clipPath208)"
         id="path209" />
    </g>
    <g
       opacity="0.399994"
       id="g212"
       clip-path="url(#clipPath213)">
      <path
         d="m 0,0 c 0,-9.869 -3.085,-16.85 -7.844,-19.605 -0.957,-0.544 -4.482,-2.58 -5.912,-3.402 4.565,2.878 7.495,9.756 7.495,19.388 0,2.509 -0.206,5.058 -0.576,7.608 -2.107,14.341 -9.817,28.539 -19.009,33.844 -4.256,2.457 -8.193,2.642 -11.4,0.945 1.397,0.802 4.944,2.848 5.9,3.403 3.27,1.912 7.351,1.819 11.761,-0.73 C -10.394,36.146 -2.684,21.949 -0.576,7.598 -0.195,5.058 0,2.509 0,0"
         style="fill:#ffffff;fill-opacity:1;fill-rule:nonzero;stroke:none"
         transform="matrix(1.3333333,0,0,-1.3333333,537.0156,379.20253)"
         clip-path="url(#clipPath211)"
         id="path212" />
    </g>
    <path
       id="path214"
       d="m 0,0 c 0,-9.633 -2.931,-16.51 -7.495,-19.389 1.43,0.823 4.955,2.858 5.912,3.403 4.759,2.755 7.844,9.736 7.844,19.605 0,0.364 -0.014,0.731 -0.022,1.097 C 4.089,3.474 1.913,2.218 -0.022,1.101 -0.014,0.733 0,0.366 0,0"
       style="fill:#00dfbf;fill-opacity:1;fill-rule:nonzero;stroke:none"
       transform="matrix(1.3333333,0,0,-1.3333333,528.668,384.02733)"
       clip-path="url(#clipPath215)" />
    <g
       opacity="0.100006"
       id="g217"
       clip-path="url(#clipPath218)">
      <path
         d="m 0,0 c 0,-9.633 -2.931,-16.51 -7.495,-19.389 1.43,0.823 4.955,2.858 5.912,3.403 4.759,2.755 7.844,9.736 7.844,19.605 0,0.364 -0.014,0.731 -0.022,1.097 C 4.089,3.474 1.913,2.218 -0.022,1.101 -0.014,0.733 0,0.366 0,0"
         style="fill:#000000;fill-opacity:1;fill-rule:nonzero;stroke:none"
         transform="matrix(1.3333333,0,0,-1.3333333,528.668,384.02733)"
         clip-path="url(#clipPath216)"
         id="path217" />
    </g>
    <g
       opacity="0.149994"
       id="g220"
       clip-path="url(#clipPath221)">
      <path
         d="m 0,0 v -2.035 l -56.018,32.342 1.029,0.596 v 0.843 z"
         style="fill:#000000;fill-opacity:1;fill-rule:nonzero;stroke:none"
         transform="matrix(1.3333333,0,0,-1.3333333,477.70307,349.22467)"
         clip-path="url(#clipPath219)"
         id="path220" />
    </g>
    <g
       opacity="0.149994"
       id="g223"
       clip-path="url(#clipPath224)">
      <path
         d="m 0,0 v -1.192 l -56.018,32.342 1.029,0.596 v 0.01 z"
         style="fill:#000000;fill-opacity:1;fill-rule:nonzero;stroke:none"
         transform="matrix(1.3333333,0,0,-1.3333333,477.70307,350.34827)"
         clip-path="url(#clipPath222)"
         id="path223" />
    </g>
    <g
       opacity="0.149994"
       id="g226"
       clip-path="url(#clipPath227)">
      <path
         d="m 0,0 c 0,-13.865 7.301,-29.321 16.307,-34.52 9.005,-5.2 16.306,1.825 16.306,15.691 0,13.866 -7.301,29.321 -16.306,34.52 C 7.301,20.891 0,13.866 0,0 Z"
         style="fill:none;stroke:#000000;stroke-width:1;stroke-linecap:butt;stroke-linejoin:miter;stroke-miterlimit:10;stroke-dasharray:none;stroke-opacity:1"
         transform="matrix(1.3333333,0,0,-1.3333333,480.8112,356.39453)"
         clip-path="url(#clipPath225)"
         id="path226" />
    </g>
    <g
       opacity="0.399994"
       id="g229"
       clip-path="url(#clipPath230)">
      <path
         d="m 0,0 c -0.854,-1.748 -1.532,-3.783 -1.984,-6.086 l -55.792,32.219 6.26,3.609 z"
         style="fill:#ffffff;fill-opacity:1;fill-rule:nonzero;stroke:none"
         transform="matrix(1.3333333,0,0,-1.3333333,480.04813,335.62693)"
         clip-path="url(#clipPath228)"
         id="path229" />
    </g>
    <path
       id="path231"
       d="M 0,0 C 2.927,5.533 6.261,17.953 7.922,24.221 10.281,33.124 6.463,38.726 2.129,38.952 -0.589,38.538 -9.513,6.062 -9.513,6.062 c -0.989,-0.791 -14.572,-7.674 -18.936,-9.404 -0.773,-0.306 -1.635,-0.295 -2.416,-0.01 -2.096,0.766 -3.523,0.62 -5.574,0.827 -1.607,0.161 -2.419,0.732 -2.623,0.388 -0.259,-0.443 -0.38,-1.545 0.789,-2.367 0.588,-0.413 1.558,-0.783 2.797,-1.222 0,0 -2.319,-0.804 -5.414,-0.735 -4.194,0.092 -5.705,-1.73 -2.451,-5.983 2.039,-2.664 5.318,-3.504 12.7,-0.95 2.128,0.735 5.01,2.165 7.692,3.14 5.546,2.015 6.97,2.233 11.226,3.666 C -5.579,-4.52 -1.299,-2.455 0,0"
       style="fill:#ffaaa8;fill-opacity:1;fill-rule:nonzero;stroke:none"
       transform="matrix(1.3333333,0,0,-1.3333333,576.67453,339.804)"
       clip-path="url(#clipPath232)" />
    <path
       id="path233"
       d="m 0,0 c 2.553,-0.349 5.026,-0.926 6.511,-2.988 1.484,-2.062 2.721,-4.97 1.237,-12.958 -1.484,-7.989 -4.537,-16.475 -4.537,-16.475 0,0 -5.937,-2.537 -12.251,3.9 l 4.335,16.779 c 0,0 0.742,10.899 4.705,11.742"
       style="fill:#375a64;fill-opacity:1;fill-rule:nonzero;stroke:none"
       transform="matrix(1.3333333,0,0,-1.3333333,577.32027,286.7448)"
       clip-path="url(#clipPath234)" />
  </g>
</svg>
